<?xml version="1.0" standalone="no"?>
<!DOCTYPE svg PUBLIC "-//W3C//DTD SVG 1.1//EN" "http://www.w3.org/Graphics/SVG/1.1/DTD/svg11.dtd" >
<!--
2013-9-30: Created.
-->
<svg>
<metadata>
Created by iconfont
</metadata>
<defs>

<font id="iconfont" horiz-adv-x="1024" >
  <font-face
    font-family="iconfont"
    font-weight="500"
    font-stretch="normal"
    units-per-em="1024"
    ascent="896"
    descent="-128"
  />
    <missing-glyph />
    
    <glyph glyph-name="icon4" unicode="&#58915;" d="M508.947478 810.976694c-277.6813 0-502.786151-225.104851-502.786151-502.786151s225.104851-502.786151 502.786151-502.786151 502.786151 225.104851 502.786151 502.786151S786.628778 810.976694 508.947478 810.976694zM671.548786 516.919425c-7.131421-12.837376-58.477856-105.547895-87.004563-176.863127-24.24724-59.905368-59.905368-152.615886-82.72612-236.055251-7.844665-28.526707-25.672706-47.069015-51.346435-47.069015-21.395286 0-35.658128 15.689331-35.658128 36.371372 0 21.394263 15.689331 54.200436 27.099195 75.594699 12.836353 22.820752 139.777487 242.473427 175.436638 305.23075L450.470645 474.128853c-42.789549 0-51.348482-14.262842-71.315232-42.788525-4.279467-5.704932-8.55791-4.279467-14.262842-1.427512-7.132444 4.279467-7.132444 4.279467-4.279467 11.410887l44.216038 124.08918c1.426489 4.279467 2.851954 5.704932 11.409864 5.704932 7.131421 0 9.984399-2.851954 8.55791-12.836353-1.427512-9.984399 4.278443-14.262842 41.36306-14.262842l208.241788 0c2.851954 0 7.131421-1.426489 7.131421-7.131421C681.533185 532.608755 677.253718 524.050846 671.548786 516.919425z"  horiz-adv-x="1024" />

    
    <glyph glyph-name="fanhuidingbu01" unicode="&#58880;" d="M928 70.624c-8.192 0-16.384 3.136-22.624 9.376L512 473.376 118.624 80c-12.512-12.512-32.736-12.512-45.248 0s-12.512 32.736 0 45.248l416 416c12.512 12.512 32.736 12.512 45.248 0l416-416c12.512-12.512 12.512-32.736 0-45.248C944.384 73.76 936.192 70.624 928 70.624z"  horiz-adv-x="1024" />

    
    <glyph glyph-name="1" unicode="&#58922;" d="M481.908146 99.624367c0-25.917276-21.549805-47.031153-48.031946-47.031153-26.516934 0-48.062646 21.113877-48.062646 47.031153 0 19.47454-16.173354 35.282574-36.066427 35.282574-19.915585 0-36.058241-15.808034-36.058241-35.282574 0-64.836681 53.91698-117.597325 120.187313-117.597325 66.236564 0 120.15866 52.756551 120.15866 117.597325L554.03486 268.670457l-72.126714 0L481.908146 99.624367 481.908146 99.624367zM533.810237 583.744389l-3.784186 17.924231c0 9.334599-7.750521 16.881482-17.308201 16.881482-9.521864 0-17.253966-7.543813-17.253966-16.881482l-5.306866-17.924231c-172.35444-7.965415-304.208467-137.344065-304.208467-296.667723l17.092283 0c10.847046 29.140691 47.290049 50.702776 91.067089 50.702776 43.769876 0 80.253812-21.562085 91.101881-50.702776l35.7052 0c10.851139 29.140691 47.313585 50.702776 91.065042 50.702776 43.776016 0 80.249719-21.562085 91.114161-50.702776l35.691897 0c10.822486 29.140691 47.309492 50.702776 91.086531 50.702776 43.768853 0 80.253812-21.562085 91.086531-50.702776l17.09126 0C838.047356 445.924487 705.466782 575.123035 533.810237 583.744389L533.810237 583.744389zM533.810237 583.744389M511.999488-175.752448c-64.259536 0-126.603443 12.588713-185.30131 37.415145-56.688093 23.977088-107.596554 58.299801-151.311171 102.013395-43.714617 43.714617-78.036307 94.623078-102.013395 151.311171-24.827455 58.696844-37.415145 121.04075-37.415145 185.300286s12.58769 126.603443 37.415145 185.30131c23.977088 56.688093 58.299801 107.596554 102.013395 151.311171 43.714617 43.714617 94.623078 78.036307 151.311171 102.013395 58.696844 24.827455 121.041774 37.415145 185.30131 37.415145s126.603443-12.58769 185.30131-37.415145c56.68707-23.977088 107.596554-58.299801 151.311171-102.013395s78.036307-94.623078 102.012372-151.311171c24.827455-58.696844 37.415145-121.041774 37.415145-185.30131s-12.588713-126.603443-37.415145-185.300286c-23.977088-56.688093-58.298777-107.596554-102.012372-151.311171s-94.624101-78.037331-151.311171-102.013395C638.602931-163.163735 576.259024-175.752448 511.999488-175.752448zM511.999488 749.723631c-247.819179 0-449.435059-201.61588-449.435059-449.435059 0-247.819179 201.61588-449.435059 449.435059-449.435059 247.819179 0 449.435059 201.61588 449.435059 449.435059C961.434547 548.107751 759.818667 749.723631 511.999488 749.723631z"  horiz-adv-x="1024" />

    
    <glyph glyph-name="shouji" unicode="&#58952;" d="M709.745736 749.610044 316.336692 749.610044c-46.366004 0-84.302011-37.936007-84.302011-84.302011l0-730.616066c0-46.366004 37.936007-84.302011 84.302011-84.302011l393.409045 0c46.366004 0 84.302011 37.936007 84.302011 84.302011L794.047748 665.308033C794.047748 711.674037 756.11174 749.610044 709.745736 749.610044zM400.638703 707.459039l224.805022 0 0-28.101012L400.638703 679.358027 400.638703 707.459039zM513.041726-93.409045c-31.038924 0-56.201 25.162076-56.201 56.201s25.162076 56.201 56.201 56.201c31.038924 0 56.201-25.162076 56.201-56.201S544.080649-93.409045 513.041726-93.409045zM737.846748 75.194978l-449.610044 0L288.236704 637.208045l449.610044 0L737.846748 75.194978z"  horiz-adv-x="1024" />

    
    <glyph glyph-name="xiebao" unicode="&#58901;" d="M954.083556-167.626667 75.207111-167.626667l-3.584 16.839111C60.814222-100.554667-30.549333 342.837333 77.368889 450.812444c75.207111 75.264 254.179556 123.847111 455.907556 123.847111 199.452444 0 356.408889-46.933333 419.896889-125.553778 95.004444-117.361778 13.880889-550.513778 4.323556-599.552L954.083556-167.626667zM109.852444-124.96l809.073778 0c25.543111 139.491556 68.039111 464.554667 1.137778 547.271111-54.670222 67.640889-202.808889 109.681778-386.730667 109.681778-188.074667 0-359.082667-44.771556-425.699556-111.388444C33.109333 346.193778 81.123556 16.579556 109.852444-124.96zM62.008889 78.702222l899.925333 0 0-42.666667-899.925333 0 0 42.666667ZM725.105778 329.070222l-42.666667 0L682.439111 562.030222c0 89.884444-73.102222 162.929778-162.986667 162.929778-89.884444 0-162.986667-73.102222-162.986667-162.929778l0-232.96-42.666667 0L313.799111 562.030222c0 113.379556 92.273778 205.596444 205.653333 205.596444s205.653333-92.273778 205.653333-205.596444L725.105778 329.070222z"  horiz-adv-x="1024" />

    
    <glyph glyph-name="icon" unicode="&#58941;" d="M294.552549 46.31523l0 36.234249 144.964626 0 0-36.234249L294.552549 46.31523zM294.552549 299.967254l144.964626 0 0-36.227086L294.552549 263.740168 294.552549 299.967254zM512 155.031281 294.552549 155.031281l0 36.234249 217.447451 0L512 155.031281zM738.557946 434.763286c6.102998-2.812045 11.336186-6.951319 16.764825-10.785647l-25.514093-25.514093c-10.778484 6.349615-23.187095 10.249435-36.603663 10.249435l-18.120706 0L348.914668 408.712981l-18.120706 0c-40.031738 0-72.482825-32.457226-72.482825-72.482825l0-362.412077c0-40.024575 32.450063-72.482825 72.482825-72.482825l362.412077 0c40.031738 0 72.482825 32.457226 72.482825 72.482825L765.688863 336.230156c0 3.305279-0.543376 6.458085-0.971118 9.647731l29.123294 29.123294c4.732791-12.140505 8.089235-24.933879 8.089235-38.771025l0-362.412077c0-60.044538-48.678676-108.723214-108.723214-108.723214L330.793962-134.905134c-60.044538 0-108.723214 48.678676-108.723214 108.723214L222.070748 336.230156c0 43.801599 26.050306 81.310887 63.371306 98.532107-16.721847 16.439414-27.129894 39.256072-27.129894 64.553225 0 50.04172 40.560788 90.602507 90.602507 90.602507l126.815267 0-36.211736-36.241412-90.602507 0c-30.021757 0-54.362118-24.339338-54.362118-54.362118 0-30.029944 24.339338-54.362118 54.362118-54.362118l326.170664 0c30.021757 0 54.362118 24.332175 54.362118 54.362118 0 30.021757-24.339338 54.362118-54.362118 54.362118L584.482825 553.676583l-36.211736 36.241412 126.815267 0c50.04172 0 90.602507-40.560788 90.602507-90.602507C765.68784 474.019359 755.272629 451.201677 738.557946 434.763286zM548.241412 662.393657c0 20.019962-16.228613 36.234249-36.241412 36.234249s-36.241412-16.214287-36.241412-36.234249l0-72.453149-36.241412 0L439.517175 662.393657c0 40.046065 32.450063 72.511477 72.482825 72.511477s72.482825-32.464389 72.482825-72.511477l0-72.453149-36.241412 0L548.241412 662.393657z"  horiz-adv-x="1024" />

    
    <glyph glyph-name="wuliu" unicode="&#58903;" d="M512.511499 894.977023C230.024572 894.977023 1.022977 665.975428 1.022977 383.488501s229.001595-511.488522 511.488522-511.488522 511.488522 229.001595 511.488522 511.488522S794.998425 894.977023 512.511499 894.977023zM512.511499-76.851168C258.27306-76.851168 52.171829 129.250063 52.171829 383.488501S258.27306 843.828171 512.511499 843.828171s460.33967-206.101231 460.33967-460.33967S766.749937-76.851168 512.511499-76.851168zM831.407201 636.827743c0 15.791697-12.816879 28.608576-28.608576 28.608576L402.273447 665.436319c-15.791697 0-28.608576-12.816879-28.608576-28.608576l0-88.732006L259.229544 548.095737c-12.101818 0-22.315221-7.55264-26.492036-18.138406l-77.014827-128.666984c-6.493858-5.235597-10.928464-12.931453-10.928464-21.942858 0-0.858278 0.399984-1.601982 0.485914-2.431616-0.200504-4.721039 0.600488-9.441055 2.603477-13.789731-1.830106-3.775808-3.089391-7.895337-3.089391-12.387229l0-114.435327c0-15.791697 12.816879-28.608576 28.608576-28.608576l5.836084 0 29.839217 0c-3.232607-8.982761-5.292883-18.509747-5.292883-28.608576 0-46.890199 38.020988-84.911187 84.911187-84.911187s84.911187 38.020988 84.911187 84.911187c0 10.098829-2.060276 19.625815-5.292883 28.608576l212.678973 0c-3.232607-8.982761-5.292883-18.509747-5.292883-28.608576 0-46.890199 38.020988-84.911187 84.911187-84.911187s84.911187 38.020988 84.911187 84.911187c0 10.098829-2.060276 19.625815-5.292883 28.608576l62.538679 0c6.638098 0 12.474182 2.631097 17.337415 6.407928 6.723005 5.26424 11.300827 13.046026 11.300827 22.200648l0 0L831.407201 636.827743 831.407201 636.827743zM289.447263 140.065999c-20.048304 0-36.319777 16.271473-36.319777 36.319777s16.271473 36.319777 36.319777 36.319777 36.319777-16.271473 36.319777-36.319777S309.495567 140.065999 289.447263 140.065999zM373.664871 255.469062 196.199836 255.469062l0 96.795111 91.638284 0c15.791697 0 28.608576 11.291621 28.608576 27.083317s-12.816879 27.083317-28.608576 27.083317l-66.341084 0 51.762638 90.984601 100.405197 0L373.664871 255.469062 373.664871 255.469062zM659.7537 142.765635c-20.048304 0-36.319777 16.271473-36.319777 36.319777s16.271473 36.319777 36.319777 36.319777 36.319777-16.271473 36.319777-36.319777S679.802004 142.765635 659.7537 142.765635zM781.236315 255.469062 424.345199 255.469062 424.345199 617.662268l356.890093 0 0.001023 0L781.236315 255.469062 781.236315 255.469062z"  horiz-adv-x="1025" />

    
    <glyph glyph-name="iconfontbaozhang" unicode="&#58894;" d="M376.72 192.413c106.495 31.055 337.988 104.031 337.988 104.031h0.067v91.984l-401.578-120.153c0 0 19.502-41.472 63.523-75.862zM309.347 309.621l405.362 118.21v91.981l-405.362-118.272zM512 896c-282.769 0-511.998-229.232-511.998-512.001 0-282.77 229.23-511.999 511.998-511.999s511.998 229.228 511.998 511.999c0 282.769-229.229 512.001-511.998 512.001zM755.199 289.669c0-134.212-241.247-200.093-241.247-200.093s-245.151 68.205-245.151 202.040v309.961c0 0 55.887-36.271 129.718-36.271 37.257 0 120.651 36.271 120.651 36.271s87.435-36.271 125-36.271c64.395 0 111.030 36.271 111.030 36.271v-311.907z"  horiz-adv-x="1024" />

    
    <glyph glyph-name="shijian" unicode="&#58957;" d="M512 832c-256 0-460.8-208-460.8-460.8s208-460.8 460.8-460.8 460.8 208 460.8 460.8S768 832 512 832zM512-44.8c-227.2 0-412.8 185.6-412.8 412.8s185.6 412.8 412.8 412.8 412.8-185.6 412.8-412.8S742.4-44.8 512-44.8zM809.6 352l-278.4 0 0 281.6c0 12.8-9.6 22.4-22.4 22.4-12.8 0-22.4-9.6-22.4-22.4l0-307.2c0-12.8 9.6-22.4 22.4-22.4 0 0 3.2 0 3.2 0l297.6 0c12.8 0 22.4 9.6 22.4 22.4C832 342.4 822.4 352 809.6 352z"  horiz-adv-x="1024" />

    
    <glyph glyph-name="nanzhuang" unicode="&#58884;" d="M644.727419 33.176866 377.411187 33.176866c-46.157249 0-83.712587 37.550221-83.712587 83.702354L293.6986 245.049345l-45.820582-74.353428c-5.191232-8.43716-15.943111-11.529591-24.835641-7.139607l-84.410482 41.687448c-4.562922 2.25946-8.04421 6.229888-9.67536 11.050684-1.635243 4.821819-1.288343 10.092869 0.970094 14.656815l173.052335 350.366739c5.627161 11.384281 14.340613 20.778232 25.242917 27.234271 14.434757 10.508331 31.41857 16.055674 49.188282 16.055674l58.69889 0c4.169973 0 8.222265-1.359974 11.549034-3.865028l62.86477-47.384194 62.871933 47.384194c3.326768 2.506077 7.379061 3.865028 11.549034 3.865028l59.781548 0c21.181415 0 41.374316-7.955182 56.919361-22.409382 6.962575-5.869684 12.484336-12.897751 16.430204-20.893866l0.411369-0.820692c0.163729-0.290619 0.572028-1.128707 0.971118-1.967818l171.663708-347.564927c2.258437-4.563946 2.605338-9.834996 0.970094-14.656815-1.63115-4.820796-5.110391-8.797363-9.673313-11.050684l-84.415598-41.687448c-8.901741-4.383844-19.649526-1.288343-24.836665 7.139607L728.444099 243.268792l0-126.389572C728.444099 70.727087 690.890808 33.176866 644.727419 33.176866zM312.888661 331.942367c1.738597 0 3.495614-0.234337 5.233188-0.726547 8.256034-2.343371 13.956873-9.881045 13.956873-18.46249l0-195.874109c0-24.989137 20.338211-45.323255 45.332465-45.323255L644.727419 71.555965c25.000394 0 45.338604 20.334117 45.338604 45.323255L690.066023 310.971753c0 8.584516 5.694699 16.122189 13.956873 18.464537 8.232498 2.357697 17.057491-1.087774 21.569248-8.395204l71.081918-115.332748 51.53984 25.453718L684.783717 562.063465c-0.094144 0.172939-0.533143 1.077541-0.626263 1.255597l-0.460488 0.917906c-1.672082 3.396353-4.013407 6.325056-7.004531 8.79941-0.322341 0.26606-0.630357 0.542352-0.932232 0.823761-8.455579 7.978718-19.479657 12.368702-31.032784 12.368702l-53.359278 0-69.296249-52.224432c-6.831592-5.15337-16.266475-5.15337-23.097044 0l-69.287039 52.224432-52.275597 0c-9.80532 0-19.190061-3.148713-27.139104-9.103332-0.64673-0.483001-1.326205-0.928139-2.034333-1.331321-4.704139-2.665713-8.456602-6.638187-10.851139-11.482519L172.833859 231.161033l51.53984-25.453718 72.177879 117.113301C300.10859 328.592063 306.353828 331.942367 312.888661 331.942367zM312.888661 342.107891 312.888661 294.527223 312.888661 342.107891ZM312.888661 275.337161c-10.596336 0-19.189038 8.591679-19.189038 19.190061l0 47.580668c0 10.597359 8.592702 19.191084 19.189038 19.191084 10.598382 0 19.190061-8.592702 19.190061-19.191084l0-47.580668C332.079746 283.929864 323.487044 275.337161 312.888661 275.337161zM708.828342 342.107891 708.828342 294.527223 708.828342 342.107891ZM708.828342 275.337161c-10.598382 0-19.189038 8.591679-19.189038 19.190061l0 47.580668c0 10.597359 8.590656 19.191084 19.189038 19.191084 10.597359 0 19.190061-8.592702 19.190061-19.191084l0-47.580668C728.01738 283.929864 719.425701 275.337161 708.828342 275.337161zM510.523881 170.598702c-5.598508 0-10.916631 2.445702-14.561647 6.691399L402.598846 286.075737c-4.502547 5.247514-5.836939 12.508895-3.490497 19.012006l63.261812 175.418218c3.592828 9.974166 14.598486 15.146978 24.563442 11.538801 9.970072-3.593851 15.137769-14.59337 11.538801-24.562419l-59.467393-164.896584 71.517847-83.333964 71.52194 83.338057-59.884902 166.202323c-3.593851 9.969049 1.574868 20.965497 11.549034 24.554232 9.950629 3.617387 20.965497-1.574868 24.553209-11.549034L621.93839 305.078533c2.342348-6.499018 1.01205-13.755282-3.489474-19.002796l-93.364411-108.785635C521.439488 173.044404 516.121366 170.598702 510.523881 170.598702z"  horiz-adv-x="1024" />

    
    <glyph glyph-name="qitiantuihuanhuo" unicode="&#58892;" d="M528 872c-265.6 0-480-214.4-480-480 0-265.6 214.4-480 480-480 265.6 0 480 214.4 480 480C1008 657.6 793.6 872 528 872zM528-56c-248 0-448 200-448 448 0 248 200 448 448 448 248 0 448-200 448-448C976 144 776-56 528-56zM801.6 444.8l-8 78.4-278.4-30.4L515.2 660.8l-84.8 0 0-177.6L251.2 464l8-78.4 171.2 19.2 0-158.4c0-81.6 40-121.6 118.4-121.6l104 0c35.2 0 62.4 4.8 81.6 16 19.2 9.6 32 25.6 38.4 44.8 4.8 19.2 14.4 57.6 25.6 113.6-30.4 9.6-57.6 20.8-86.4 32-6.4-48-9.6-80-12.8-92.8-3.2-12.8-8-22.4-17.6-27.2-9.6-6.4-22.4-8-38.4-8l-80 0c-32 0-49.6 17.6-49.6 51.2L513.6 412.8 801.6 444.8z"  horiz-adv-x="1024" />

    
    <glyph glyph-name="dianhua-copy" unicode="&#58918;" d="M0 70.4c0 70.4 32 160.001 83.2 256 51.2 89.6 128 185.6 217.6 275.2 96 89.6 185.6 160 281.6 211.2 44.799 25.6 89.6 44.8 134.4 64 38.4 12.8 76.8 19.2 108.8 19.2 19.199 0 38.399-6.4 51.199-19.2 12.799-6.4 38.4-25.6 51.199-44.8 19.2-19.2 64-70.4 76.8-89.6l12.8-19.199c6.4-6.4 6.4-19.2 0-31.999 0 0 0 0-6.4-6.4-6.4-6.4-12.8-19.199-25.6-25.6-19.2-19.2-44.799-38.4-76.8-57.6-51.199-32-102.4-57.6-128-70.4-6.399 0-12.8 0-12.8 0-6.399 0-12.799 6.4-38.4 25.6-12.8 12.8-25.6 25.6-31.999 25.6-12.799 6.4-25.599 6.4-44.799 0h-6.399c-32-6.4-64-12.8-102.4-44.8-32-19.2-64-44.8-96-76.8-32-32-57.6-64-83.2-89.6-32-44.8-44.8-70.4-44.8-96 0-38.4 19.2-70.4 32-96 6.4-19.2 19.2-32 19.2-51.199 0-6.399 0-6.399 0-12.8-6.4-19.2-32-64-76.8-134.4-51.2-70.4-83.2-102.4-89.6-108.8-6.399 0-12.8 0-25.6 0-38.399 6.4-108.8 64-128 89.6-19.2 19.2-32 38.399-38.4 57.6-6.4 19.2-12.8 31.999-12.8 51.2zM966.4 710.4v0c-12.8 19.199-57.6 70.4-76.8 83.2-12.8 19.199-25.6 31.999-44.799 38.4-12.799 6.4-19.199 12.8-19.199 12.8-25.6 0-57.6-6.4-89.6-19.2-44.799-12.8-83.2-32-128-57.6-89.6-51.2-179.2-121.6-262.4-204.8-89.6-83.2-160-172.8-211.2-262.4-51.2-89.6-76.8-166.4-76.8-230.4 0-6.399 0-19.199 6.4-32 6.4-12.799 19.2-25.599 25.6-38.4 19.2-25.599 64-57.6 89.6-70.4 12.8 12.8 38.4 44.799 70.4 89.6 38.4 57.6 57.6 96 70.4 108.8 0 6.399-6.4 19.2-12.8 25.6-12.8 31.999-38.4 70.4-38.4 121.6 0 38.4 19.2 76.8 57.6 128 25.6 31.999 51.2 64 89.6 96 32 32 70.4 64 96 83.2 44.799 38.4 83.2 44.8 121.6 51.2l6.4 6.4c25.599 6.4 51.2 12.8 83.2-6.4 6.4-6.4 19.199-12.8 38.4-25.6s12.8-12.8 12.8-19.199c25.6 12.8 64 32 108.8 57.6 25.599 19.2 51.2 38.4 70.4 57.6 0 0 6.4 6.4 12.799 6.4z"  horiz-adv-x="1024" />

    
    <glyph glyph-name="dianhua" unicode="&#59154;" d="M341.333333 63.146667c44.373333 51.2 71.68 105.813333 27.306667 157.013333L341.333333 254.293333c-20.48 23.893333-112.64 64.853333 75.093333 228.693333 187.733333 163.84 218.453333 64.853333 238.933333 44.373333l27.306667-30.72c44.373333-51.2 102.4-30.72 160.426667 6.826667l34.133333 23.893333c58.026667 37.546667 95.573333 78.506667 51.2 129.706667l-23.893333 27.306667c-17.066667 23.893333-71.68 88.746667-174.08 102.4C607.573333 803.84 464.213333 742.4 307.2 609.28c-157.013333-136.533333-235.52-269.653333-232.106667-392.533333 0-105.813333 58.026667-167.253333 78.506667-187.733333l23.893333-27.306667c44.373333-51.2 92.16-20.48 136.533333 34.133333L341.333333 63.146667z"  horiz-adv-x="1024" />

    
    <glyph glyph-name="nvzhuang" unicode="&#58923;" d="M921.6 212.48l-2.56 5.12-248.32 248.32c20.48 104.96 89.6 181.76 89.6 181.76l5.12 5.12 0 7.68c7.68 51.2 2.56 92.16-17.92 122.88-20.48 30.72-51.2 35.84-53.76 35.84L691.2 819.2l-97.28 0L588.8 798.72C588.8 796.16 573.44 716.8 512 716.8s-76.8 79.36-76.8 81.92L430.08 819.2 332.8 819.2l-2.56 0c-2.56 0-33.28-5.12-53.76-35.84C253.44 755.2 248.32 714.24 256 660.48l0-7.68 5.12-5.12c0 0 69.12-76.8 89.6-181.76l-248.32-248.32L102.4 212.48c-2.56-10.24-33.28-112.64 10.24-171.52C128 23.04 153.6 0 204.8 0l143.36 0c20.48-15.36 74.24-51.2 163.84-51.2s143.36 35.84 163.84 51.2L819.2 0c51.2 0 76.8 23.04 92.16 40.96C954.88 102.4 924.16 202.24 921.6 212.48zM304.64 675.84c-10.24 74.24 23.04 89.6 30.72 92.16l53.76 0c15.36-43.52 51.2-102.4 122.88-102.4s107.52 58.88 122.88 102.4l53.76 0c7.68-2.56 40.96-15.36 30.72-92.16-20.48-23.04-87.04-112.64-102.4-225.28-17.92-10.24-58.88-25.6-104.96-28.16-46.08 2.56-84.48 20.48-104.96 28.16C394.24 565.76 325.12 652.8 304.64 675.84zM870.4 71.68c-10.24-12.8-25.6-20.48-51.2-20.48l-163.84 0-7.68-7.68C645.12 40.96 604.16 0 512 0s-133.12 40.96-135.68 43.52L368.64 51.2 204.8 51.2c-23.04 0-40.96 7.68-51.2 20.48-23.04 30.72-12.8 92.16-5.12 120.32l220.16 220.16c7.68-5.12 69.12-38.4 140.8-40.96 71.68 5.12 130.56 35.84 140.8 40.96l220.16-220.16C880.64 163.84 890.88 102.4 870.4 71.68z"  horiz-adv-x="1024" />

    
    <glyph glyph-name="shipin" unicode="&#58925;" d="M716.8 611.84 716.8 844.8 307.2 844.8l0-232.96c-61.44-56.32-102.4-138.24-102.4-227.84s40.96-171.52 102.4-227.84L307.2-76.8l409.6 0 0 232.96c61.44 56.32 102.4 138.24 102.4 227.84S778.24 555.52 716.8 611.84zM358.4 793.6l307.2 0 0-143.36c0 0-2.56 0-2.56 2.56-10.24 5.12-20.48 10.24-30.72 15.36 0 0-2.56 0-2.56 0-10.24 5.12-20.48 7.68-30.72 10.24-2.56 0-5.12 2.56-10.24 2.56-10.24 2.56-17.92 5.12-28.16 5.12-2.56 0-5.12 0-10.24 2.56C537.6 691.2 524.8 691.2 512 691.2s-25.6 0-35.84-2.56c-2.56 0-5.12 0-10.24-2.56-10.24-2.56-17.92-2.56-28.16-5.12-2.56 0-5.12-2.56-10.24-2.56-10.24-2.56-20.48-7.68-30.72-10.24 0 0-2.56 0-2.56 0-10.24-5.12-20.48-10.24-30.72-15.36 0 0-2.56 0-2.56-2.56L360.96 793.6zM665.6-25.6 358.4-25.6l0 143.36c0 0 2.56 0 2.56-2.56 43.52-25.6 94.72-38.4 151.04-38.4s104.96 15.36 151.04 38.4c0 0 2.56 0 2.56 2.56L665.6-25.6zM655.36 171.52C655.36 171.52 655.36 171.52 655.36 171.52c-7.68-5.12-12.8-7.68-20.48-12.8-2.56 0-5.12-2.56-7.68-2.56-5.12-2.56-10.24-5.12-12.8-7.68-2.56-2.56-5.12-2.56-10.24-5.12-5.12-2.56-7.68-2.56-12.8-5.12-2.56 0-7.68-2.56-10.24-2.56-5.12 0-7.68-2.56-12.8-2.56-2.56 0-7.68-2.56-10.24-2.56-5.12 0-10.24-2.56-12.8-2.56-2.56 0-5.12 0-10.24 0-7.68 0-15.36 0-23.04 0s-15.36 0-23.04 0c-2.56 0-5.12 0-10.24 0-5.12 0-10.24 0-12.8 2.56-2.56 0-7.68 2.56-10.24 2.56-5.12 0-7.68 2.56-12.8 2.56-2.56 0-7.68 2.56-10.24 2.56-5.12 2.56-7.68 2.56-12.8 5.12-2.56 0-5.12 2.56-10.24 5.12-5.12 2.56-10.24 5.12-12.8 7.68-2.56 0-5.12 2.56-7.68 2.56-5.12 2.56-12.8 7.68-17.92 10.24 0 0 0 0 0 0C302.08 217.6 256 296.96 256 384s46.08 166.4 112.64 212.48c0 0 0 0 0 0 5.12 5.12 12.8 7.68 17.92 10.24 2.56 0 5.12 2.56 7.68 2.56 5.12 2.56 10.24 5.12 12.8 7.68 2.56 2.56 5.12 2.56 10.24 5.12 5.12 2.56 7.68 2.56 12.8 5.12 2.56 0 7.68 2.56 10.24 2.56 5.12 0 7.68 2.56 12.8 2.56 2.56 0 7.68 2.56 10.24 2.56 5.12 0 10.24 2.56 12.8 2.56 2.56 0 5.12 0 10.24 0 7.68 0 15.36 0 23.04 0s15.36 0 23.04 0c2.56 0 5.12 0 10.24 0 5.12 0 10.24 0 12.8-2.56 2.56 0 7.68-2.56 10.24-2.56 5.12 0 7.68-2.56 12.8-2.56 2.56 0 7.68-2.56 10.24-2.56 5.12-2.56 7.68-2.56 12.8-5.12 2.56 0 5.12-2.56 10.24-5.12 5.12-2.56 10.24-5.12 12.8-7.68 2.56 0 5.12-2.56 7.68-2.56 5.12-2.56 12.8-7.68 17.92-10.24 0 0 0 0 0 0 69.12-46.08 112.64-122.88 112.64-212.48S721.92 217.6 655.36 171.52zM401.92 529.92 366.08 494.08 501.76 358.4 640 358.4 640 409.6 522.24 409.6Z"  horiz-adv-x="1024" />

    
    <glyph glyph-name="yugao" unicode="&#58927;" d="M665.6 793.6l51.2 0 0-179.2-51.2 0 0 179.2ZM307.2 793.6l51.2 0 0-179.2-51.2 0 0 179.2ZM409.6 742.4l204.8 0 0-51.2-204.8 0 0 51.2ZM972.8 104.96 972.8 665.6c0 30.72-12.8 48.64-25.6 56.32-28.16 23.04-69.12 20.48-79.36 20.48L768 742.4l0-51.2 102.4 0 2.56 0c10.24 2.56 30.72 0 40.96-7.68C916.48 680.96 921.6 678.4 921.6 665.6l0-76.8L102.4 588.8l0 53.76c0 0-2.56 20.48 10.24 35.84C120.32 686.08 135.68 691.2 153.6 691.2l102.4 0L256 742.4 153.6 742.4C120.32 742.4 92.16 732.16 74.24 711.68 48.64 680.96 51.2 642.56 51.2 640l0-537.6c0-97.28 81.92-125.44 128-128l665.6 0c46.08 0 81.92 12.8 102.4 40.96C977.92 48.64 972.8 92.16 972.8 104.96zM908.8 46.08C896 33.28 875.52 25.6 844.8 25.6L179.2 25.6c-7.68 0-76.8 5.12-76.8 76.8l0 435.2 819.2 0 0-435.2 0-5.12C921.6 97.28 926.72 66.56 908.8 46.08zM614.4 384l102.4 0 0-51.2-102.4 0 0 51.2ZM460.8 384l102.4 0 0-51.2-102.4 0 0 51.2ZM307.2 384l102.4 0 0-51.2-102.4 0 0 51.2ZM614.4 256l102.4 0 0-51.2-102.4 0 0 51.2ZM460.8 256l102.4 0 0-51.2-102.4 0 0 51.2ZM307.2 256l102.4 0 0-51.2-102.4 0 0 51.2Z"  horiz-adv-x="1024" />

    
    <glyph glyph-name="huanhuoyifachu" unicode="&#58907;" d="M313.450968 455.538313l-43.6348-79.022775c-3.865028-5.54018-8.05649-12.105712-8.05649-17.152658l110.366643 0 0 100.946087-50.700729 0C318.087569 460.308967 313.450968 455.538313 313.450968 455.538313zM509.615697 829.277366c-246.680239 0-446.654736-199.973474-446.654736-446.654736 0-246.680239 199.974497-446.654736 446.654736-446.654736s446.654736 199.974497 446.654736 446.654736C956.270433 629.303892 756.295935 829.277366 509.615697 829.277366zM341.03828 177.661561c-28.619828 0-51.813063 22.593578-51.813063 50.472532 0 27.879977 23.193235 50.473555 51.813063 50.472532 28.619828 0 51.813063-22.593578 51.813063-50.472532S369.658108 177.661561 341.03828 177.661561zM631.194706 177.661561c-28.619828 0-51.813063 22.593578-51.813063 50.472532 0 27.879977 23.193235 50.473555 51.813063 50.472532 28.620851 0 51.814086-22.593578 51.814086-50.472532S659.814534 177.661561 631.194706 177.661561zM765.91092 258.417817c0-11.120268-9.31004-20.188808-20.72502-20.188808l-41.329291 0c-5.081739 34.780131-35.56296 61.71048-72.661903 61.71048s-67.580165-26.930349-72.661903-61.71048l-144.833643 0.020466c-5.100158 34.778084-35.58138 61.690014-72.661903 61.690014-37.098943 0-67.580165-26.930349-72.661903-61.71048l-20.603247 0c-11.414981 0-20.72502 9.069563-20.72502 20.188808 0 0 0 81.820494 0 100.946087 0.001023 19.125593 15.868409 40.771589 15.868409 40.771589l46.308699 80.363306c9.471722 11.120268 15.867386 20.188808 31.088042 20.188808l72.54013 0 0 60.567447c0 11.120268 9.31004 20.188808 20.72502 20.188808L745.1859 581.443861c11.414981 0 20.72502-9.069563 20.72502-20.188808L765.91092 258.417817z"  horiz-adv-x="1024" />

    
    <glyph glyph-name="shuangren" unicode="&#58919;" d="M880.64 0h-122.88c7.68 10.24 10.24 20.48 10.24 33.28V204.8c0 17.92-2.56 35.84-7.68 51.2h35.84c69.12 0 125.44-58.88 125.44-130.56v-81.92c0-23.04-17.92-43.52-40.96-43.52zM409.6 588.8m-179.2 0a179.2 179.2 0 1 1 358.4 0 179.2 179.2 0 1 1-358.4 0ZM686.08 355.84c-28.16 20.48-46.08 53.76-46.08 92.16 0 64 51.2 115.2 115.2 115.2s115.2-51.2 115.2-115.2-51.2-115.2-115.2-115.2c-23.04 0-43.52 7.68-61.44 17.92-2.56 2.56-5.12 2.56-7.68 5.12zM256 332.8h307.2c84.48 0 153.6-69.12 153.6-153.6v-128c0-28.16-23.04-51.2-51.2-51.2H153.6c-28.16 0-51.2 23.04-51.2 51.2v128c0 84.48 69.12 153.6 153.6 153.6z"  horiz-adv-x="1024" />

    
    <glyph glyph-name="yundong" unicode="&#59021;" d="M871.424 74.752H754.688c-8.192 0-15.36-7.168-15.36-15.36s7.168-15.36 15.36-15.36h116.736c8.192 0 15.36 7.168 15.36 15.36s-7.168 15.36-15.36 15.36zM694.272 74.752H441.344l390.144 420.864v5.12c0 1.024 3.072 37.888-20.48 61.44-14.336 14.336-33.792 20.48-58.368 18.432-20.48 7.168-53.248 40.96-80.896 70.656-41.984 44.032-75.776 79.872-105.472 71.68-10.24-3.072-14.336-12.288-20.48-24.576-3.072-7.168-7.168-15.36-12.288-23.552-33.792-49.152-87.04-107.52-122.88-129.024-1.024 1.024-3.072 2.048-4.096 3.072-21.504 18.432-58.368 48.128-84.992 28.672-17.408-13.312-16.384-35.84-15.36-64.512 1.024-17.408 2.048-37.888-1.024-60.416v-2.048c-11.264-88.064-22.528-178.176-49.152-217.088-14.336-20.48-28.672-26.624-45.056-33.792-13.312-5.12-28.672-12.288-41.984-26.624-33.792-35.84-32.768-88.064-32.768-90.112v-7.168l6.144-4.096 4.096-4.096c8.192-8.192 22.528-22.528 43.008-22.528h502.784c8.192 0 15.36 7.168 15.36 15.36s-5.12 14.336-13.312 14.336z m96.256 465.92c9.216-9.216 11.264-24.576 11.264-31.744L573.44 262.144c2.048 22.528 4.096 50.176 4.096 73.728 0 31.744 104.448 144.384 176.128 214.016 16.384 2.048 28.672-1.024 36.864-9.216zM399.36 74.752H191.488c-8.192 0-15.36 7.168-21.504 13.312l-1.024 1.024c1.024 12.288 5.12 41.984 23.552 62.464 9.216 9.216 19.456 14.336 30.72 19.456 18.432 8.192 38.912 16.384 58.368 44.032 30.72 45.056 43.008 135.168 54.272 231.424v2.048c3.072 25.6 2.048 48.128 1.024 65.536-1.024 16.384-2.048 35.84 3.072 38.912 2.048 2.048 11.264 2.048 47.104-27.648 6.144-5.12 11.264-9.216 14.336-11.264l7.168-4.096 7.168 3.072c47.104 21.504 111.616 97.28 143.36 143.36 7.168 10.24 11.264 20.48 15.36 27.648 1.024 2.048 2.048 5.12 3.072 7.168 14.336-3.072 51.2-41.984 71.68-63.488 28.672-29.696 56.32-58.368 80.896-72.704-48.128-47.104-175.104-175.104-175.104-221.184 0-33.792-4.096-75.776-6.144-99.328L399.36 74.752z"  horiz-adv-x="1024" />

    
    <glyph glyph-name="qitiantuihuo" unicode="&#59011;" d="M512-128C230.4-128 0 102.4 0 384S230.4 896 512 896s512-230.4 512-512-230.4-512-512-512z m0 969.6C259.2 841.6 54.4 636.8 54.4 384S259.2-73.6 512-73.6 969.6 131.2 969.6 384 764.8 841.6 512 841.6zM492.8 192h256c16 0 22.4-9.6 25.6-22.4 0-12.8-9.6-19.2-25.6-22.4h-249.6c-57.6 3.2-105.6 19.2-144 51.2 0 0-3.2-3.2-6.4-3.2-22.4-22.4-44.8-35.2-64-41.6-12.8-3.2-22.4 0-28.8 9.6-6.4 12.8-3.2 22.4 9.6 28.8 41.6 16 64 38.4 64 67.2v115.2c0 12.8-6.4 22.4-19.2 22.4H268.8c-12.8 0-16 9.6-19.2 22.4 0 12.8 6.4 19.2 19.2 22.4h67.2c22.4 0 35.2-12.8 35.2-35.2v-131.2c3.2-51.2 44.8-80 121.6-83.2zM316.8 598.4c22.4-22.4 44.8-48 67.2-80 9.6-12.8 6.4-22.4-3.2-32-12.8-6.4-22.4-3.2-32 9.6-9.6 12.8-28.8 35.2-54.4 67.2l-9.6 9.6c-9.6 6.4-9.6 16 0 25.6 9.6 9.6 22.4 9.6 32 0z m361.6 19.2c28.8 0 41.6-9.6 38.4-35.2v-140.8c0-22.4-12.8-32-35.2-35.2h-214.4v-147.2c0-3.2 0-3.2 3.2-3.2h3.2c28.8 12.8 48 28.8 64 38.4 12.8 9.6 22.4 9.6 35.2 0 9.6-12.8 6.4-22.4-6.4-35.2-25.6-19.2-54.4-38.4-89.6-54.4-32-12.8-48 0-51.2 28.8V582.4c-3.2 25.6 9.6 38.4 38.4 38.4l214.4-3.2z m-195.2-38.4c-12.8 0-16-6.4-16-19.2v-22.4h211.2v22.4c0 12.8-3.2 19.2-16 19.2h-179.2z m-16-128h195.2c9.6 0 16 3.2 16 12.8v35.2h-211.2v-48z m83.2-60.8c22.4-12.8 44.8-32 73.6-54.4 25.6 19.2 48 38.4 64 54.4 9.6 9.6 19.2 9.6 32 3.2 9.6-12.8 9.6-22.4 0-35.2-12.8-16-35.2-32-60.8-51.2 16-12.8 35.2-35.2 64-64 9.6-12.8 9.6-25.6 0-35.2-12.8-9.6-22.4-6.4-35.2 3.2-44.8 51.2-99.2 99.2-163.2 144-9.6 6.4-9.6 16-3.2 28.8 9.6 12.8 19.2 12.8 28.8 6.4z"  horiz-adv-x="1024" />

    
    <glyph glyph-name="xinrenlixi" unicode="&#58890;" d="M512-114.526316C237.136842-114.526316 13.473684 109.136842 13.473684 384S237.136842 882.526316 512 882.526316 1010.526316 658.863158 1010.526316 384 786.863158-114.526316 512-114.526316z m0 970.105263C253.305263 855.578947 40.421053 642.694737 40.421053 384S253.305263-87.578947 512-87.578947 983.578947 125.305263 983.578947 384 770.694737 855.578947 512 855.578947zM512 653.473684c-134.736842 0-242.526316-107.789474-242.526316-242.526316s107.789474-242.526316 242.526316-242.526315 242.526316 107.789474 242.526316 242.526315-107.789474 242.526316-242.526316 242.526316z m0-37.726316c5.389474 0 10.778947-5.389474 10.778947-10.778947s-5.389474-10.778947-10.778947-10.778947-10.778947 5.389474-10.778947 10.778947 5.389474 10.778947 10.778947 10.778947z m134.736842-215.578947h-134.736842c-5.389474 0-10.778947 5.389474-10.778947 10.778947v2.694737l-35.031579 83.536842c-2.694737 5.389474 0 10.778947 5.389473 13.473685s10.778947 0 13.473685-5.389474l37.726315-83.536842H646.736842c5.389474 0 10.778947-5.389474 10.778947-10.778948s-5.389474-10.778947-10.778947-10.778947z m59.284211 0c-5.389474 0-10.778947 5.389474-10.778948 10.778947s5.389474 10.778947 10.778948 10.778948 10.778947-5.389474 10.778947-10.778948-5.389474-10.778947-10.778947-10.778947zM327.68 194.290526a86.231579 21.557895 0 1 1 172.463158 0 86.231579 21.557895 0 1 1-172.463158 0ZM327.68 205.069474h175.157895v-10.778948h-175.157895zM327.68 205.069474a86.231579 21.557895 0 1 1 172.463158 0 86.231579 21.557895 0 1 1-172.463158 0ZM521.701053 194.290526a86.231579 21.557895 0 1 1 172.463158 0 86.231579 21.557895 0 1 1-172.463158 0ZM521.701053 205.069474h175.157894v-10.778948h-175.157894zM521.701053 205.069474a86.231579 21.557895 0 1 1 172.463158 0 86.231579 21.557895 0 1 1-172.463158 0ZM521.701053 233.094737a86.231579 21.557895 0 1 1 172.463158 0 86.231579 21.557895 0 1 1-172.463158 0ZM521.701053 243.873684h175.157894v-10.778947h-175.157894zM521.701053 243.873684a86.231579 21.557895 0 1 1 172.463158 0 86.231579 21.557895 0 1 1-172.463158 0ZM327.68 233.094737a86.231579 21.557895 0 1 1 172.463158 0 86.231579 21.557895 0 1 1-172.463158 0ZM327.68 243.873684h175.157895v-10.778947h-175.157895zM483.974737 258.425263c-16.168421-5.389474-40.421053-10.778947-70.063158-10.778947-26.947368 0-51.2 2.694737-67.368421 8.08421-10.778947-2.694737-18.863158-8.084211-18.863158-13.473684 0-10.778947 40.421053-21.557895 86.231579-21.557895 48.505263 0 86.231579 10.778947 86.231579 21.557895 2.694737 5.389474-5.389474 10.778947-16.168421 16.168421zM327.68 282.677895h175.157895v-10.778948h-175.157895zM483.974737 297.229474c-16.168421-5.389474-40.421053-10.778947-70.063158-10.778948-26.947368 0-51.2 2.694737-67.368421 8.084211-10.778947-2.694737-18.863158-8.084211-18.863158-13.473684 0-10.778947 40.421053-21.557895 86.231579-21.557895 48.505263 0 86.231579 10.778947 86.231579 21.557895 2.694737 5.389474-5.389474 10.778947-16.168421 16.168421zM327.68 321.482105a86.231579 21.557895 0 1 1 172.463158 0 86.231579 21.557895 0 1 1-172.463158 0Z"  horiz-adv-x="1024" />

    
    <glyph glyph-name="jiantou" unicode="&#59712;" d="M277.44 278.72l250.773 250.667L778.88 278.72z"  horiz-adv-x="1024" />

    
    <glyph glyph-name="icon-test" unicode="&#58900;" d="M707.1 390.3H547.9V646.2c0 1.1-0.9 2-2 2h-60.5c-1.1 0-2-0.9-2-2v-318.3c0-1.1 0.9-2 2-2H707c1.1 0 2 0.9 2 2v60.5c0.1 1-0.8 1.9-1.9 1.9zM804.2 60.5C882.4 136.7 931 243 931 360.5c0 95-31.8 182.7-85.3 253.1 23.6 24 36.9 56.1 36.9 90.3 0 71.1-57.8 128.9-128.9 128.9-50.4 0-94.9-28.8-116-72.6-39.7 12.5-81.9 19.3-125.7 19.3s-86-6.8-125.7-19.3c-21.1 43.5-65.6 72.6-116 72.6-71.1 0-128.9-57.8-128.9-128.9 0-34.3 13.6-66.6 36.9-90.3C124.8 543.3 93 455.5 93 360.5c0-110.5 43-211.1 113.1-286.1l-93.2-93.2c-0.8-0.8-0.8-2.1 0-2.8l42.8-42.8c0.8-0.8 2.1-0.8 2.8 0l95.2 95.2c71.2-55.9 161-89.3 258.3-89.3 90.3 0 174 28.7 242.5 77.5l83.3-83.3c0.8-0.8 2.1-0.8 2.8 0l42.8 42.8c0.8 0.8 0.8 2.1 0 2.8l-79.2 79.2z m-50.5 707.9c35.5 0 64.5-28.9 64.5-64.5 0-15.6-5.6-30.3-15.5-41.9-30.8 29.7-66.2 54.8-104.9 74 11.2 19.7 32.3 32.4 55.9 32.4z m-483.4 0c23.7 0 44.7-12.8 55.9-32.3-38.7-19.2-74.1-44.3-104.9-74-9.8 11.5-15.5 26.3-15.5 41.9 0 35.5 28.9 64.4 64.5 64.4zM157.5 360.5C157.5 556 316.5 715 512 715s354.5-159 354.5-354.5S707.5 6 512 6 157.5 165.1 157.5 360.5z"  horiz-adv-x="1024" />

    
    <glyph glyph-name="arrowdown" unicode="&#59113;" d="M512 295.359l-177.287 177.283h354.574l-177.287-177.283z"  horiz-adv-x="1024" />

    
    <glyph glyph-name="jujia" unicode="&#58992;" d="M983.381333 534.186667c-22.357333 22.357333-53.077333 30.72-81.066666 33.621333V732.842667c0 47.616-36.352 83.968-83.968 83.968H203.264c-47.616 0-83.968-36.352-83.968-83.968v-170.496c-39.082667-5.632-69.973333-19.626667-89.429333-44.714667-39.082667-53.077333-22.357333-123.050667-22.357334-125.781333l2.730667-8.362667 109.056-137.045333V117.76c0-39.082667 17.237333-81.066667 83.626667-81.066667v-30.72c0-30.72 16.554667-45.738667 47.445333-45.738666 30.72 0 47.445333 14.848 47.445333 45.738666v27.989334h428.714667v-27.989334c0-30.72 16.554667-45.738667 47.445333-45.738666 30.72 0 47.445333 14.848 47.445334 45.738666v30.72c77.994667 0 83.626667 41.984 83.626666 81.066667v128.682667l109.056 137.045333V389.12c11.264 66.901333 0 114.346667-30.72 145.066667zM198.485333 778.581333h624.810667c22.186667 0 39.594667-16.896 39.594667-40.448v-171.008h-5.802667l-8.874667-3.072-290.474666-268.629333h-123.221334L158.890667 549.034667V738.133333c0 23.04 16.384 40.448 39.594666 40.448z m669.013334-521.728v-140.288c0-24.405333-13.141333-43.861333-37.888-43.861333H197.632c-25.941333 0-39.594667 20.650667-39.594667 43.861333v140.288L46.933333 397.653333s-18.773333 15.36-0.853333 70.826667c11.946667 32.426667 59.733333 69.973333 94.208 42.325333l41.642667-37.034666 233.642666-217.429334h159.914667l281.941333 266.752c5.973333 5.12 58.88 14.506667 98.133334-15.36 35.84-39.253333 23.04-111.786667 15.530666-121.856l-103.594666-129.024z"  horiz-adv-x="1024" />

    
    <glyph glyph-name="denglu" unicode="&#59017;" d="M472.91 822.803c-31.055 0-26.278-9.564-43-11.952-16.725-2.389 3.382 2.388-46.788-7.165-50.166-9.554-67.885-74.06-70.274-97.95-2.388-23.894-2.985-91.048-1.398-126.884 4.777-21.5-11.942-21.5-11.942-21.5-30.058 1.923-16.544-91.748-16.544-91.748 4.312-23.088-1.557-34.586 42.955-52.473 21.204-60.397 75.152-90.89 75.152-90.89s2.679-38.718 3.52-66.312c-4.531 2.26 14.51-70.503-123.765-90.91-138.28-20.398-164.756-65.19-190.82-90.12-26.073-24.94-24.093-140.047-24.093-140.047H956.37s-5.67 115.106-31.738 140.046c-26.068 24.93-54.463 69.722-192.738 90.12-138.275 20.407-113.764 91.186-114.712 95.488 0.244 10.87 5.072 56.959 5.072 56.959s44.532 37.06 65.731 97.469c33.366 21.061 46.079 24 51.59 48.282 0 0 11.259 91.748-24.578 91.748 0 0-14.932-2.399-10.15 19.112 4.782 21.5 3.19 88.655 0.801 112.55-2.393 23.888 4.573 92.176-45.593 101.73-34.244 6.374-38.224-3.303-54.953-0.914-16.718 2.388-36.63 45.706-67.69 45.706L472.91 822.803z"  horiz-adv-x="1024" />

    
    <glyph glyph-name="zhanghao" unicode="&#59127;" d="M627.2 394.24c53.76 35.84 89.6 99.84 89.6 168.96 0 112.64-92.16 204.8-204.8 204.8s-204.8-92.16-204.8-204.8c0-71.68 35.84-133.12 89.6-168.96C235.52 345.6 112.64 202.24 102.4 25.6c0-15.36 10.24-25.6 23.04-28.16 15.36 0 25.6 10.24 28.16 23.04 12.8 189.44 168.96 337.92 358.4 337.92s345.6-148.48 358.4-335.36c0-15.36 12.8-25.6 28.16-23.04 15.36 0 25.6 12.8 23.04 28.16-12.8 174.08-133.12 317.44-294.4 366.08zM512 409.6c-84.48 0-153.6 69.12-153.6 153.6s69.12 153.6 153.6 153.6 153.6-69.12 153.6-153.6-69.12-153.6-153.6-153.6z"  horiz-adv-x="1024" />

    
    <glyph glyph-name="fangdajing" unicode="&#58896;" d="M870.441 95.846l-176.415 176.497c-2.089 2.089-4.342 3.604-6.472 5.284 29.778 45.711 47.145 100.188 47.145 158.925 0 161.219-130.621 291.84-291.881 291.84-161.137 0-291.881-130.621-291.881-291.84 0-161.26 130.744-291.881 291.881-291.881 58.655 0 113.213 17.449 159.007 47.268 1.679-2.253 3.195-4.383 5.243-6.472l176.456-176.497c12.001-12.001 27.73-17.94 43.459-17.94s31.416 5.939 43.459 17.94c23.921 24.003 23.921 62.874-0 86.876M442.86 236.79c-110.1 0-199.68 89.62-199.68 199.721s89.62 199.68 199.68 199.68 199.721-89.62 199.721-199.68-89.661-199.721-199.721-199.721z"  horiz-adv-x="1024" />

    
    <glyph glyph-name="yingtao" unicode="&#58898;" d="M778.70592 476.02688c-32.98304 0-64.70144-8.25856-93.0048-24.04864-25.3184 42.65472-28.3648 55.28576-34.21696 88.20224-9.1648 51.62496-6.75328 100.36736 2.78016 143.09888 1.52064 6.81984 3.01568 12.5952 4.352 17.23904l2.08896 0.43008-0.8704 3.6608c0.8704 2.78528 1.63328 4.98688 2.24256 6.55872l9.728 24.97024h104.37632c15.68768 0 28.3648 12.61568 28.3648 28.17024 0 15.6672-12.69248 28.17024-28.3648 28.17024h-337.664c-15.68768 0-28.3648-12.61056-28.3648-28.17024 0-15.6672 12.6976-28.17024 28.3648-28.17024h133.23264c-29.32736-12.17024-62.67904-31.34976-95.90272-59.52a362.24 362.24 0 0 1-49.57184-51.18976c-34.20672-43.09504-57.78944-82.30912-72.59648-116.99712-4.73088-11.09504-8.1408-20.64384-10.52672-28.65152-11.74016 1.664-23.6544 2.82112-35.85024 2.82112-140.02688 0-253.5424-113.5104-253.5424-253.53728s113.5104-253.5424 253.5424-253.5424 253.5424 113.51552 253.5424 253.5424c0 106.46016-65.69472 197.44256-158.68928 235.01824 1.69472 5.77024 4.33664 13.3888 8.55552 23.2704 12.83072 30.06464 33.8176 64.96256 64.9216 104.15104a303.37024 303.37024 0 0 0 41.54368 42.90048 306.5344 306.5344 0 0 0 79.00672 48.6656c-8.76032-46.99648-10.1632-99.2256-0.384-154.32704 6.95296-39.168 11.65312-61.2352 60.02176-125.55264a29.11232 29.11232 0 0 1 10.9568-9.11872 26.59328 26.59328 0 0 1 29.45536 1.52064c23.97696 17.83296 52.49536 27.25888 82.4832 27.25888 76.29824 0 138.368-62.06976 138.368-138.368 0-76.30336-62.06976-138.37312-138.368-138.37312-76.30336 0-138.37312 62.06976-138.37312 138.37312 0 23.62368 6.05184 46.93504 17.48992 67.4048a26.56256 26.56256 0 0 1-10.22976 36.16768 26.56768 26.56768 0 0 1-36.16256-10.22976 191.61088 191.61088 0 0 1-24.25856-93.34784c0-105.61024 85.92384-191.53408 191.5392-191.53408 105.61024 0 191.53408 85.92384 191.53408 191.53408-0.01536 105.6256-85.93408 191.54944-191.54944 191.54944z m-281.25184-246.96832c0-105.02144-85.13536-190.1568-190.1568-190.1568s-190.1568 85.13536-190.1568 190.1568c0 105.01632 85.13536 190.1568 190.1568 190.1568s190.1568-85.14048 190.1568-190.1568zM312.21248 352.69632a26.624 26.624 0 0 1-3.46624-0.23552v0.00512l-0.03584-0.01024a25.23136 25.23136 0 0 1-5.69856-1.4592c-24.90368-6.93248-44.22144-20.60288-58.1376-38.92736-12.54912-16.51712-18.49856-32.98816-20.44928-45.08672l0.14336-0.0256-0.01536-0.10752c-1.31072-13.23008 7.58272-24.93952 19.87072-26.15808 11.46368-1.14176 21.82656 7.2704 24.22272 19.1488l0.01024-0.00512c0.87552 5.4528 4.43392 15.3088 11.88864 25.12384 8.81152 11.60192 21.0944 19.90144 38.20544 23.81824l-0.01024 0.04096c10.11712 2.64704 17.536 11.26912 17.536 21.51424 0.00512 12.35456-10.77248 22.36416-24.064 22.36416z"  horiz-adv-x="1024" />

    
    <glyph glyph-name="arrow-circle-o-right" unicode="&#58885;" d="M128 384c0 212.001 171.999 384 384 384s384-171.999 384-384-171.999-384-384-384-384 171.999-384 384M64 384c0-247.2 200.8-448 448-448s448 200.8 448 448-200.8 448-448 448-448-200.8-448-448zM386.399 610.4l227.2-226.4-227.2-226.4 45.6-45.6 272.001 272.001-272.001 272.001-45.6-45.6z"  horiz-adv-x="1024" />

    
    <glyph glyph-name="qqkongjian" unicode="&#58910;" d="M664.26 455.259h-312.747l210.624-31.915-223.387-178.709h331.889l-197.856 38.294zM824.94 832.555h-626.254c-76.687 0-134.197-57.511-134.197-134.197v-626.254c0-76.681 57.511-134.197 134.197-134.197h626.254c76.681 0 134.197 57.516 134.197 134.197v626.254c0 76.687-57.516 134.197-134.197 134.197zM677.023 340.373l38.293-242.54c-6.379-6.383-6.379-6.383-12.763-6.383l-197.857 121.27-197.86-121.27c-12.764 0-19.147 0-19.147 6.383l31.915 236.156-159.564 140.417v6.379h229.771l108.502 210.624h12.763l114.887-210.625 204.24-0c6.385 0 6.385 0 6.385-6.379l-159.564-134.032z"  horiz-adv-x="1024" />

    
    <glyph glyph-name="fenxiang" unicode="&#59065;" d="M730.172235 495.375059l4.758589-272.745412 386.258823 340.118588L723.305412 889.163294l4.126117-237.236706c-18.522353 3.252706-191.698824 30.418824-340.720941-71.951059-157.665882-108.272941-195.373176-343.762824-195.373176-309.36847 0 34.424471 183.476706 247.055059 537.72047 224.828235l1.114353-0.060235zM897.807059 293.345882h103.574588v-341.594353c0-33.219765-26.804706-60.175059-60.385882-60.175058H60.385882A60.235294 60.235294 0 0 0 0-48.248471V835.794824C0 869.044706 26.804706 896 60.385882 896h457.577412v-100.442353H103.604706v-803.538823h794.202353V293.345882z"  horiz-adv-x="1144" />

    
    <glyph glyph-name="qitianyuan" unicode="&#58886;" d="M464.69888 847.2576h107.50464c4.7872-1.4848 9.472-3.61984 14.37184-4.36224 203.2384-30.81216 359.3216-180.12672 397.91104-380.71808 2.23744-11.6224 4.992-23.1424 7.50592-34.70848v-107.50464c-1.68448-6.52288-3.95264-12.95872-4.96128-19.584-29.6448-195.03104-179.55328-352.35328-372.75648-391.10656-14.06464-2.82112-28.04736-6.05696-42.07104-9.09824H464.69888c-4.7872 1.4848-9.472 3.61984-14.37184 4.36224-203.2384 30.81216-359.3216 180.1216-397.91104 380.71808-2.23744 11.6224-4.992 23.1424-7.50592 34.70848V427.4688c1.68448 6.52288 3.95264 12.95872 4.96128 19.584 29.6448 195.03104 179.55328 352.35328 372.75648 391.10656 14.06464 2.82624 28.04736 6.05696 42.07104 9.09824z m506.78272-472.9088c-0.36352 247.58784-206.75584 453.10976-454.2976 452.39296-246.58944-0.7168-451.38432-205.78816-451.75808-452.3776-0.37376-247.5008 205.50144-453.67808 453.02272-453.6832 247.51104-0.00512 453.39648 206.16704 453.03296 453.66784zM213.09696 627.38432c114.94912-28.00128 214.83008 5.47328 307.64032 72.55552 92.54912-66.8416 193.17248-100.86912 311.12704-71.92576 2.27328-44.22656 6.59968-84.81792 5.95456-125.32736-1.20832-75.81696-5.08928-151.59296-8.27904-227.36896-1.94048-46.17216-21.18656-85.8368-49.42848-121.14432-66.59584-83.26144-154.93632-137.58464-248.8832-183.94624-5.78048-2.85184-15.44704-2.70336-21.28896 0.16384-86.25152 42.368-167.00416 92.70272-232.4224 164.56704-40.40704 44.38528-66.27328 95.61088-67.00544 156.38528-1.30048 108.17024-0.78336 216.36608-0.90624 324.54656-0.01024 2.39616 1.39264 4.7872 3.49184 11.4944z m239.79008-447.86688c29.97248-8.74496 43.80672-0.4352 54.272 27.14624 31.97952 84.23936 67.85024 166.99904 102.0928 250.38336 3.11296 7.5776 5.41696 15.48288 8.84736 25.41056H413.45792v-29.45024h154.27072l-114.8416-273.48992z"  horiz-adv-x="1024" />

    
    <glyph glyph-name="wodezuji" unicode="&#58897;" d="M527.603056 595.576871A21.79654 21.79654 0 0 1 511.024032 603.427527c-12.921886 0-23.356919-12.190459-23.356919-27.160343v-335.725234c0-15.018645 10.435033-27.209104 23.356919-27.209104l197.095337 1.901711a21.845302 21.845302 0 0 1 16.530262 7.948179 29.598434 29.598434 0 0 1 6.826657 19.260925c0 7.16799-2.438092 14.140932-6.826657 19.212163a21.79654 21.79654 0 0 1-16.530262 7.948179l-173.494609-1.60914V576.267184a29.598434 29.598434 0 0 1-6.924181 19.309687M1032.678144 583.678983a509.707462 509.707462 0 0 1-109.080225 162.523197A507.269371 507.269371 0 0 1 761.80615 855.770023 503.953566 503.953566 0 0 1 563.638052 895.998537C463.968861 895.998537 367.420427 867.034007 284.476546 812.274466A511.365365 511.365365 0 0 1 99.961762 595.869442a20.431209 20.431209 0 1 1 37.254042-16.969119 470.405423 470.405423 0 0 0 169.691186 199.045811A464.651527 464.651527 0 0 0 563.686814 854.89231c63.195338 0 124.537727-12.434268 182.222978-36.961471a466.602 466.602 0 0 0 148.82112-100.790713 469.137616 469.137616 0 0 0 137.118281-332.555715 469.088854 469.088854 0 0 0-137.118281-332.506954 466.553238 466.553238 0 0 0-148.82112-100.790713 463.334957 463.334957 0 0 0-182.222978-36.912709 463.334957 463.334957 0 0 0-182.222978 36.912709 466.553238 466.553238 0 0 0-148.772359 100.790713 468.845045 468.845045 0 0 0-136.874471 317.585832l5.85142-0.048762h25.697487a23.795776 23.795776 0 0 1 15.652549 40.764894L91.623488 461.920681a23.551966 23.551966 0 0 1-33.401857 0L6.924181 410.379421a23.795776 23.795776 0 0 1 16.676547-40.472323h25.648725l5.607611-0.048762c1.755426-63.829242 15.116169-125.756773 39.789658-184.319736a509.804986 509.804986 0 0 1 109.080225-162.474435 507.171847 507.171847 0 0 1 161.791769-109.616605c62.756482-26.672724 129.41391-40.179752 198.119336-40.179752 68.754187 0 135.362854 13.507028 198.168098 40.179752a507.123085 507.123085 0 0 1 161.791769 109.616605 510.195081 510.195081 0 0 1 149.113691 361.569007c0 68.997997-13.507028 135.996758-40.033466 199.045811"  horiz-adv-x="1072" />

    
    <glyph glyph-name="wuliu1" unicode="&#59008;" d="M585.093043 749.670559l-121.770538-292.618292 341.326507-24.354107-341.326507-390.034722 121.955039 268.264184-317.710403 24.354108zM512.03072-127.999815a509.406749 509.406749 0 0 0-339.296998 129.15057c10.516546 6.642029 21.033093 13.837561 31.54964 21.955597s18.450081 15.313568 27.490621 23.062601a441.510449 441.510449 0 1 1-88.37589 99.999442c-7.380033-4.981522-14.760065-9.963044-22.140098-15.682569a410.145311 410.145311 0 0 1-35.055155-30.811636A511.98976 511.98976 0 1 0 512.03072-127.999815z"  horiz-adv-x="1024" />

    
    <glyph glyph-name="lihe" unicode="&#58881;" d="M220.456213 356.8192l0-391.8144c0 0 10.5632-25.08 35.6432-31.6864L599.505813-66.6816 599.505813 356.8256 220.456213 356.8256 220.456213 356.8192 220.456213 356.8192zM1037.688213 353.7056l0-388.7008c0 0-10.5632-25.08-35.6496-31.6864L660.193813-66.6816 660.193813 356.8256l377.4944 0L1037.688213 353.7056 1037.688213 353.7056zM1108.981013 577.6c-3.9632 27.7248-31.6816 35.6432-31.6816 35.6432l-117.4192 0c14.8128 10.9184 30.0256 26.5936 43.8816 49.0688 25.888 41.9872 26.3312 100.8496 1.1376 149.968C979.681813 861.4432 933.832213 891.8496 879.118613 895.6992c-26.6368 1.8752-52.6944-5.0368-77.488-20.544-19.512-12.2064-38.3312-29.8496-55.9184-52.4368-30.1744-38.7568-49.1376-82.2448-55.888-99.1504-0.8368-2.0944-2.4368-5.3632-3.4496-7.3312-18.2944 7.0944-39.632 11.5936-61.8688 10.712-0.4256-0.0176-0.8496-0.024-1.2688 0-21.832 1.176-42.9056-3.2624-61.0128-10.3872-5.832 17-62.5632 173.712-172.4448 173.712-116.1808 0-153.1488-85.5936-162.3936-117.2864l43.576-14.5184c0 0 21.1248 85.8112 112.2176 87.136 80.6448 1.1696 130.2448-122.8304 140.5632-151.312-11.1376-9.3056-17.712-18.8-17.712-25.8064 0-6.8992 5.3248-15.4816 15.0864-23.8368-98.4992-21.5568-150.3552 64.0752-307.5184 103.8-170.3008 25.744-213.0624-54.7808-213.0624-54.7808s-7.6496-40.8 34.8368-29.7136c67.3312 61.3936 164.3632 37.632 207.9312 23.7696 33.8384-10.7632 106.832-51.2688 173.2-74.488L180.843413 613.2368c0 0-27.7184-7.9184-31.68-35.6432 1.3184-31.688 0-142.5888 0-142.5888L599.505813 435.0048 599.505813 613.2368l0 0c1.5376 0.5808 0.1008 0.0192 1.5376 0.5808 9.8624-1.5248 12.3008-1.2432 23.456-1.2432 9.288 0 18.088 0.5504 26.3872 1.5376l-0.0064-0.8752 10.5248 0-1.2944-3.7008-0.032-19.2368 0.1184 0 0-155.2944 448.7808 0C1108.981013 435.0048 1107.662613 545.912 1108.981013 577.6L1108.981013 577.6 1108.981013 577.6zM720.056213 698.136c0.7056 1.3632 3.4688 6.7264 5.2752 11.2512 10.3056 25.7936 66.0368 154.1488 151.1056 148.1744 56.2-3.9504 83.288-41 94.432-62.7312 18.9312-36.888 19.0688-82.0816 0.3504-112.4496-35.888-58.2192-79.968-55.7312-83.3936-55.456l-0.7744 0.1312-184.3312 1.1616c26.0688 12.0512 40.2496 28.5872 40.2496 40.2752C742.968213 676.5616 734.344213 687.7248 720.056213 698.136L720.056213 698.136 720.056213 698.136zM624.501013 641.9424c-7.6624 0-14.5056 0.4064-20.6128 1.1312-0.1568 1.888-0.856 4.288-2.3184 7.3504-9.0496 18.8448-28.4192 9.9248-33.7872 6.9808-2.9184 3.432-4.3008 7.2-4.3008 11.088 0 13.9808 17.8368 25.2688 61.0192 25.2688 39.7872 0 64.968-11.288 64.968-25.2688C689.469013 654.512 667.688213 641.9424 624.501013 641.9424L624.501013 641.9424 624.501013 641.9424zM624.501013 641.9424"  horiz-adv-x="1145" />

    
    <glyph glyph-name="jian" unicode="&#58905;" d="M512-128a512 512 0 1 0 512 512 512 512 0 0 0-512-512z m0 955.733333a443.733333 443.733333 0 1 1 443.733333-443.733333A443.733333 443.733333 0 0 1 512 827.733333z m95.573333-240.64a650.478933 650.478933 0 0 0-136.533333-160.426666 239.240533 239.240533 0 0 1-28.330667 31.505066 507.972267 507.972267 0 0 1 145.749334 172.509867h47.445333l-6.485333-10.001067a403.592533 403.592533 0 0 1 151.210666-154.0096c-9.216-10.001067-18.090667-21.333333-27.648-34.133333A482.542933 482.542933 0 0 0 607.573333 587.093333z m-216.064-160.017066l22.186667 16.008533c17.749333-22.016 33.792-42.666667 47.445333-61.986133l-27.648-21.504a614.843733 614.843733 0 0 1-41.984 61.44v-274.978134h-34.816V424.96a576.375467 576.375467 0 0 0-61.098666-145.5104 285.627733 285.627733 0 0 1-16.042667 43.997867 596.2752 596.2752 0 0 1 72.362667 177.493333H284.672V534.186667h72.021333V634.5728h34.816V534.186667h66.901334v-33.109334h-66.901334v-74.001066z m204.117334-176.981334a1214.7712 1214.7712 0 0 1-30.037334 138.990934l34.816 8.4992c13.312-46.011733 23.893333-92.16 32.768-138.001067z m-51.541334-6.519466l-36.864-10.990934a1613.6192 1613.6192 0 0 1-36.522666 136.533334l34.474666 10.001066q18.944-55.534933 38.912-135.543466z m165.888 172.509866h-204.8v34.986667h204.8v-34.986667z m-17.408-26.487466l40.618667-11.502934c-22.528-70.3488-41.984-128.512-59.050667-174.523733h93.866667v-35.498667h-321.877333v35.498667h190.464c18.090667 48.674133 36.522667 110.660267 55.978666 186.026667z"  horiz-adv-x="1024" />

    
    <glyph glyph-name="arrow-right" unicode="&#58887;" d="M422.28038263 541.56087432l27.67430424 28.64586725 193.72062124-192.74954989-193.72062124-192.7495499-27.67430424 28.64586726 163.13310299 164.10417432z"  horiz-adv-x="1024" />

    
    <glyph glyph-name="guoji" unicode="&#58924;" d="M794.13678032 407.85282356H171.51019632c-37.267727 0-67.454585-10.647922-67.454585-23.691626s30.197506-23.712922 67.454585-23.712922h622.605288c37.320966 0 67.486529 10.647922 67.486529 23.712922s-30.144267 23.691626-67.465233 23.691626z m0 0M576.66362432-5.180066440000019V624.25054056c0 37.672348-10.647922 68.1467-23.712922 68.1467s-23.755514-30.474352-23.755514-68.1467v-629.430607c0-37.714939 10.647922-68.210588 23.712922-68.210587s23.712922 30.516944 23.712922 68.210587z m0 0M915.15041232 407.85282356h-14.821907a23.702274 23.702274 0 0 1 0-47.404548h14.821907a23.702274 23.702274 0 0 1 0 47.404548z m0 0M529.26972332 745.98823156v-14.821907a23.702274 23.702274 0 0 1 47.404549 0v14.821907a23.702274 23.702274 0 0 1-47.404549 0z m0 0M593.72159432 865.75605656C329.32304632 888.35094656 96.88955932 694.45228956 74.30531732 432.27915656c-22.59489-261.938878 173.561127-492.871008 438.002267-515.710801a482.947145 482.947145 0 0 1 105.520906 2.491614 437.054602 437.054602 0 0 1 62.322286 12.681675 28.451247 28.451247 0 0 1 2.45967 54.378937c22.115734 35.532115 44.316651 75.770612 59.69225 110.536077a462.769333 462.769333 0 0 0 67.880503-40.355624c-4.259169-9.434059-6.899853-25.491125 0-34.190477a29.132714 29.132714 0 0 1 40.717653-4.961931c103.284842 80.924206 169.078352 200.180931 180.503572 332.949869C1054.04190632 612.01607856 858.21597432 842.91626456 593.72159432 865.75605656z m-4.961931-57.371003c13.927482-1.235159 35.819609-1.863386 49.502189-4.589254a1041.824621 1041.824621 0 0 0 71.06423-139.360002c-76.995123-29.814181-203.716042-47.745282-321.907974 1.192567 17.11121 42.208362 38.236687 89.389304 65.048155 134.078633 41.239401 9.434059 92.115172 12.415477 136.2934 8.688704z m-187.935821-26.300367c-12.660379-21.593986-33.445123-54.943277-50.045233-95.416028a434.925017 434.925017 0 0 0-57.360356 36.745978c31.539145 23.830049 70.191101 44.274059 107.437532 58.67005zM132.17677232 427.28528156a414.800445 414.800445 0 0 0 128.371347 266.198047 446.627084 446.627084 0 0 1 77.463631-49.129512c-43.943974-125.645478-74.237311-309.11982 2.736516-510.727573a486.120226 486.120226 0 0 1-76.228473-47.670746c-91.369818 84.661627-143.746945 208.284-132.343021 341.372375zM297.74131032 58.004702560000055a484.810531 484.810531 0 0 0 56.604353 35.500171c13.650636-30.516944 34.286308-64.473167 53.654878-95.511859-38.460294 13.906186-78.208986 36.202934-110.259231 60.011688z m328.850419-79.497385c-2.704572-0.521748-13.735819-1.863386-16.461687-2.363839a415.971716 415.971716 0 0 0-93.105429-2.225415c-13.160831 1.245807-33.721969 2.949474-46.659194 5.206833-17.877861 22.573594-45.935135 70.276284-74.535453 133.37587 114.5184 45.935135 235.23389 27.418399 311.185517-1.160623-28.302176-62.822739-62.300991-109.247679-80.423754-132.832826z m95.543803 170.100552c-134.046689 51.173913-264.49438 32.806247-346.430138 0.777298-44.444426 116.424378-70.936456 285.726336-4.15269 479.39074 82.681113-32.774304 214.566274-54.134035 351.381423-1.245807 68.061517-193.664403 42.953717-361.731202-0.766651-478.922231z m251.73817 206.431262A414.427768 414.427768 0 0 0 840.54042432 84.40090055999997a628.504237 628.504237 0 0 1-84.416725 49.161456c75.47247 202.054966 43.975917 385.838098-0.244902 510.472023-5.462384 15.396895-11.16967 29.814181-16.887604 43.198619a734.866329 734.866329 0 0 1-50.173008 100.314072c179.790161-60.586676 301.687571-236.61812 285.055517-432.507939z m0 0M737.30882132 24.51698755999996c-5.909597-2.981418-12.021504-5.867005-18.367665-8.71a28.64291 28.64291 0 0 1-14.630245-37.959841 29.20725 29.20725 0 0 1 38.332519-14.523766q10.733105 4.759621 20.731504 9.774793a28.579022 28.579022 0 0 1 12.937225 38.609364 29.324377 29.324377 0 0 1-39.013986 12.841394M855.02159832 694.84626256c-33.264108-24.085599-66.666639-40.749597-98.440038-56.114548-5.462384 15.364951-7.357714 24.181431-13.033057 37.619108 45.935135 22.105086 76.494671 43.975917 76.494671 43.975917z m0 0"  horiz-adv-x="1105" />

    
    <glyph glyph-name="iconjian" unicode="&#58912;" d="M717.09184214 353.18794708999997h-410.1317627c-16.98779924 0-30.7590824 13.77023422-30.75908241 30.75803348s13.77023422 30.76537592 30.75908241 30.76537593h410.13281163c16.99566616 0 30.7590824-13.77757668 30.7590824-30.76537593-0.00052447-16.98884817-13.76446518-30.75803347-30.7590824-30.75803348z"  horiz-adv-x="1024" />

    
    <glyph glyph-name="jiantouxiangxia" unicode="&#58988;" d="M749.333333 486.666667c0 2.933333 1.6 6 4.533334 8 5.2 3.466667 12.8 2.8 17.066666-1.6l136-133.333334 135.6 132.933334c4.133333 4.4 11.866667 5.066667 17.066667 1.6s6-10 1.866667-14.4L916.4 336.933333c-2.266667-2.4-5.733333-3.866667-9.466667-3.866666s-7.2 1.466667-9.466666 3.866666L752 480.266667c-1.733333 1.866667-2.666667 4.133333-2.666667 6.4z"  horiz-adv-x="1821" />

    
    <glyph glyph-name="iconfont707" unicode="&#58913;" d="M914.817322 358.68852100000004L109.182678 358.68852100000004c-13.482059 0-24.413016 11.06501-24.413016 24.559349s10.930957 24.559349 24.413016 24.559349l805.634644 0c13.482059 0 24.413016-11.06501 24.413016-24.559349S928.299381 358.68852100000004 914.817322 358.68852100000004zM536.440645 786.064168l0-805.634644c0-13.482059-11.06501-24.413016-24.559349-24.413016s-24.559349 10.930957-24.559349 24.413016l0 805.634644c0 13.482059 11.06501 24.413016 24.559349 24.413016S536.440645 799.546228 536.440645 786.064168z"  horiz-adv-x="1024" />

    
    <glyph glyph-name="lianxikefu" unicode="&#58914;" d="M516.21 125.723c4.518 0 9.108 0.264 13.727 0.799 44.318 5.15 81.942 35.151 95.83 76.491 1.047 3.077-0.47 6.429-3.522 7.762-3.026 1.361-6.683 0.184-8.389-2.587-0.162-0.275-17.768-27.807-86.317-36.773-10.262-1.338-20.244-2.035-29.707-2.035-48.031 0.03-69.428 17.562-69.627 17.719-2.439 2.121-6.121 2.176-8.631 0.125-2.51-2.053-3.072-5.573-1.325-8.265 20.917-32.822 58.429-53.236 97.961-53.236z m-143.869-38.86l-0.005 0.009c-0.03-0.068-0.03-0.072 0.005-0.009z m512.443 450.251c-0.596 0-1.153-0.109-1.73-0.109-40.164 168.389-193.63 294-377.631 294-189.061 0-346.044-132.549-380.839-307.904C90.749 517.206 65 488.409 65 453.586V314.2c0-39.063 32.348-70.745 72.293-70.745 22.527 0 42.417 10.295 55.643 26.127 31.966-81.867 97.048-147.887 179.396-182.719 0.202 0.414 1.756 3.35 3.633 5.689 1.3 1.623 2.747 2.954 3.997 2.954 1.291 0 2.474-0.455 3.491-1.151-19.065 13.743-87.912 84.381-102.823 182.954-6.547 43.393 27.013 85.981 66.1 93.034 62.75 11.308 125.162 24.195 187.908 35.299 39.885 7.046 67.147 28.233 83.814 63.511 3.906 8.247 9.553 24.93 12.133 48.969 0.689 3.573 3.714 6.327 7.595 6.327 2.586 0 4.786-1.288 6.244-3.127l1.735 1.04c24.727-34.775 73.77-111.76 80.818-192.937 8.081-92.817 3.577-156.387-69.788-221.416-0.098-0.093-0.199-0.189-0.309-0.266a5.768 5.768 0 0 1-1.624-3.978c0-2.005 1.104-3.709 2.697-4.747 0.612-0.241 1.215-0.56 1.822-0.801 0.496-0.107 0.962-0.273 1.453-0.273 0.496 0 0.94 0.162 1.38 0.273 1.038 0.535 2.035 1.151 3.056 1.682 74.929 40.021 131.239 106.267 157.392 185.17 10.879-15.593 27.641-26.426 46.682-30.178C838.681 118.1 712.694 32.485 556.611 19.495c-9.356 22.466-32.371 38.423-59.411 38.423-35.322 0-63.954-27.086-63.954-60.473s28.632-60.45 63.954-60.45c28.465 0 52.318 17.719 60.6 42.055 180.671 14.235 325.501 118.223 355.733 279.806 26.71 10.81 45.466 36.188 45.466 65.809V465.722c0.001 39.42-33.231 71.392-74.215 71.392z m-66.647-40.513c-47.126 123.612-169.232 211.912-312.876 211.912-143.043 0-264.711-87.556-312.271-210.365-2.363 2.808-5.14 5.205-7.863 7.63 26.928 149.66 159.928 263.444 320.295 263.444 159.603 0 292.194-112.668 319.995-261.279-2.741-3.57-5.276-7.314-7.28-11.342z"  horiz-adv-x="1024" />

    
    <glyph glyph-name="aixinjuanzeng" unicode="&#59235;" d="M510.078219 892.149239c-281.710125 0-510.078219-228.368094-510.078219-510.07102 0-281.710125 228.368094-510.078219 510.078219-510.078219 281.702927 0 510.063823 228.375292 510.063823 510.078219 0 281.702927-228.360896 510.071021-510.063823 510.07102z m0-989.54469c-264.809964 0-479.473669 214.663705-479.47367 479.47367 0 264.802767 214.663705 479.466472 479.47367 479.466471 264.788371 0 479.459274-214.663705 479.459274-479.466471 0-264.809964-214.670903-479.473669-479.459274-479.47367zM521.8042048 199.34003946999997a12.17656107 12.17656107 0 0 0-17.21301973-17.21301867L321.75083627 364.96736854000005a12.17656107 12.17656107 0 1 0 17.21301973 17.22069759l182.8403488-182.84802666zM525.33586773 504.28380587l46.13426987 46.13427094c46.74079573 46.74847253 122.52568213 46.7561504 169.28183253 0.00767786 46.74079573-46.74079573 46.74079573-122.53336-0.01535466-169.28183254l-46.12659307-46.11891626 15.38576747-15.40112214 46.1419488 46.13426987c55.23981973 55.2474976 55.23981973 144.81354773 0 200.05336854s-144.80587093 55.23981973-200.05336854 0L509.9424224 519.6772512l15.39344533-15.39344533zM279.14822933 550.41807681c46.74079573 46.74079573 122.52568213 46.74079573 169.27415467 0l61.5507488-61.55074881 15.37041173 15.40880107-61.5277152 61.5277152c-55.2474976 55.2474976-144.80587093 55.2474976-200.0687232 0-55.23981973-55.23981973-55.23981973-144.80587093 0.00767787-200.04569067l246.21067093-246.21834773 15.39344534 15.40112213-246.21067094 246.19531627c-46.74079573 46.74847253-46.74079573 122.5410368 0 169.28183254zM517.3589152 127.54746773m-10.87905813 0a10.87905813 10.87905813 0 1 1 21.75811626 0 10.87905813 10.87905813 0 1 1-21.75811626 0ZM701.6196064 326.67953279999995m-10.87905813 0a10.87905813 10.87905813 0 1 1 21.75811626 0 10.87905813 10.87905813 0 1 1-21.75811626 0Z"  horiz-adv-x="1024" />

    
    <glyph glyph-name="icon-question" unicode="&#58916;" d="M511.337409 832.435289c-247.341295 0-447.847911-200.508663-447.847911-447.847911 0-247.339248 200.508663-447.847911 447.847911-447.847911 247.338225 0 447.846888 200.508663 447.846888 447.847911C959.18532 631.9266259999999 758.676657 832.435289 511.337409 832.435289zM511.337409 1.0644939999999679c-211.81415 0-383.52186 171.709757-383.52186 383.522883 0 211.81415 171.706687 383.52186 383.52186 383.52186 211.812103 0 383.52186-171.70771 383.52186-383.52186C894.859269 172.77425100000005 723.149513 1.0644939999999679 511.337409 1.0644939999999679zM501.962901 625.478773c-65.918315-2.162246-135.077441-34.579563-157.769256-135.075395 54.029544-7.565303 79.96524-10.807137 79.96524-10.807137s14.048971 86.449931 100.496855 76.723406c86.448908-9.726525 66.998927-74.563206 58.351989-87.530542-8.643867-21.61325-88.609107-73.482595-101.577466-104.819301-12.967336-31.337729-11.886725-89.691765-11.886725-89.691765l77.80504 0c0 0-4.323469 61.59587 38.902008 87.530542 43.224454 25.934672 116.706025 101.57849 84.288708 173.97945C618.668926 618.995105 567.880193 627.639996 501.962901 625.478773zM468.463949 245.10255600000005l81.045851 0 0-88.598874-81.045851 0 0 88.598874Z"  horiz-adv-x="1024" />

    
    <glyph glyph-name="xiegang" unicode="&#58902;" d="M732.8 753.6c6.4-3.2 8-11.2 4.8-16L404.8 163.2c-3.2-6.4-11.2-8-16-4.8-6.4 3.2-8 11.2-4.8 16L715.2 748.8c3.2 6.4 11.2 8 17.6 4.8zM379.2 139.2c6.4-3.2 8-11.2 4.8-16l-60.8-104c-3.2-6.4-11.2-8-16-4.8-6.4 3.2-8 11.2-4.8 16l60.8 104c3.2 6.4 11.2 8 16 4.8z"  horiz-adv-x="1024" />

    
    <glyph glyph-name="shangpinzhongxinshangpinliebiao" unicode="&#59137;" d="M981.4-18.6H34c-18.7 0-34 17.3-34 36s15.3 37.1 34 37.1h947.4c18.7 0 34-18.4 34-37.1 0.1-18.7-15.3-36-34-36z m0 365.7H34c-18.7 0-34 18.3-34 37s15.3 36.1 34 36.1h947.4c18.7 0 34-17.4 34-36.1 0.1-18.7-15.3-37-34-37z m-69.7 365.8c-18.7 0-34 18.4-34 37.1 0 18.7 15.3 36 34 36H988c18.7 0 34-17.3 34-36s-15.3-37.1-34-37.1h-76.3z m-877.7 0c-18.7 0-34 18.4-34 37.1 0 18.7 15.3 36 34 36h666.7c18.7 0 34-17.3 34-36s-15.3-37.1-34-37.1H34z"  horiz-adv-x="1024" />

    
    <glyph glyph-name="pei" unicode="&#58899;" d="M512-128C229.218462-128 0 101.218462 0 384S229.218462 896 512 896s512-229.218462 512-512-229.218462-512-512-512z m0 39.384615c261.021538 0 472.615385 211.593846 472.615385 472.615385S773.021538 856.615385 512 856.615385 39.384615 645.021538 39.384615 384s211.593846-472.615385 472.615385-472.615385zM506.289231 343.709538h272.344615V110.08h-41.550769v36.923077h-189.243077v-37.494154h-41.550769V343.709538zM269.784615 641.398154h183.453539v-353.654154h-38.084923V603.904h-107.323077v-319.606154H269.784615V641.378462z m467.298462-337.486769h-189.243077v-117.129847h189.243077v117.129847z m-260.765539 137.294769h186.919385c28.061538 45.784615 49.427692 82.707692 64.039385 110.769231l42.692923-25.383385c-21.543385-32.295385-41.353846-60.770462-59.431385-85.385846h107.894154v-40.369231H476.317538v40.369231z m-133.848615 112.502154h38.065231v-170.180923c0-43.460923-4.608-83.101538-13.843692-118.86277l16.147692 15.576616a3953.033846 3953.033846 0 0 0 97.516308-111.340308l-35.780924-29.991385a1678.257231 1678.257231 0 0 1-84.224 104.999385c-17.329231-53.464615-46.355692-96.925538-87.118769-130.382769a322.678154 322.678154 0 0 1-29.991384 34.599384c66.146462 48.462769 99.229538 126.936615 99.229538 235.401847v170.180923z m142.493539 48.462769h146.530461a1133.804308 1133.804308 0 0 1-30.562461 59.431385l36.923076 19.022769c11.913846-19.219692 23.827692-40.172308 35.761231-62.877539l-32.295384-15.556923h162.107077v-40.408615H484.962462V602.190769z m29.991384-73.846154l32.886154 22.508308c23.473231-28.849231 42.889846-55.000615 58.289231-78.473846l-36.942769-27.116308c-19.987692 34.244923-38.065231 61.932308-54.232616 83.101538z"  horiz-adv-x="1024" />

    
    <glyph glyph-name="youhuiquan" unicode="&#58921;" d="M623.616-8.704H160.256c-68.096 0-122.88 55.296-122.88 122.88v154.112c0 27.648 19.456 51.712 46.592 56.832 23.04 4.608 39.936 25.6 39.936 49.152s-16.896 44.544-39.936 49.152c-27.136 5.632-46.592 29.184-46.592 56.832V634.368c0 68.096 55.296 122.88 122.88 122.88h736.768c68.096 0 122.88-55.296 122.88-122.88v-154.112c0-27.648-19.456-51.712-46.592-56.832-23.04-4.608-39.936-25.6-39.936-49.152s16.896-44.544 39.936-49.152c27.136-5.632 46.592-29.184 46.592-56.832v-154.112c0-68.096-55.296-122.88-122.88-122.88h-273.408c0.512 0 0 0 0 0zM160.256 706.56c-39.424 0-71.68-32.256-71.68-71.68v-154.112c0-3.072 2.56-6.144 5.632-6.656 47.104-9.728 80.896-51.2 80.896-99.328 0-48.128-34.304-89.6-81.408-99.328-3.072-0.512-5.632-3.584-5.632-6.656v-154.112c0-39.424 32.256-71.68 71.68-71.68h736.768c39.424 0 71.68 32.256 71.68 71.68v154.112c0 3.072-2.56 6.144-5.632 6.656-47.104 9.728-81.408 51.2-81.408 99.328 0 48.128 34.304 90.112 81.408 99.328 3.072 0.512 5.632 3.584 5.632 6.656v153.6c0 39.424-32.256 71.68-71.68 71.68H160.256z m808.448-257.536zM693.248 568.32c10.24 8.704 11.264 24.064 2.048 34.304-8.704 10.24-24.064 11.264-34.304 2.048l-130.048-124.928-135.168 124.928c-10.24 8.704-25.6 7.68-34.304-2.048-8.704-10.24-7.68-25.6 2.048-34.304l143.36-131.584v-10.24H396.8c-13.312 0-24.064-10.752-24.064-24.064s10.752-24.064 24.064-24.064H506.88v-48.128H396.8c-13.312 0-24.064-10.752-24.064-24.064s10.752-24.064 24.064-24.064H506.88v-120.832c0-13.312 10.752-24.064 24.064-24.064s24.064 10.752 24.064 24.064v120.832H665.6c13.312 0 24.064 10.752 24.064 24.064s-10.752 24.064-24.064 24.064h-109.568V378.88H665.6c13.312 0 24.064 10.752 24.064 24.064s-10.752 24.064-24.064 24.064h-109.568v10.24L693.248 568.32z"  horiz-adv-x="1024" />

    
    <glyph glyph-name="kefu" unicode="&#58920;" d="M327.864 229.356c60.191-50.566 120.361-66.438 186.757-66.438 66.745 0 138.691 29.901 183.829 72.725 57.242-35.062 107.95-114.422 108.913-191.18H217.62c8.192 91.176 64.451 156.855 110.244 184.893z m366.654 40.243C646.43 219.77 582 189.5 511.038 189.5c-70.984 0-135.414 30.29-183.501 79.73-86.016-48.723-142.603-135.804-142.603-254.28h654.152c0 118.476-57.57 205.905-144.568 254.648zM298.435 377.364V565.207l-7.189-0.369c37.929 92.611 122 156.836 219.791 156.836 97.465 0 181.515-64.225 219.444-156.836l-6.861 0.369v-187.843c46.776 0 85.033 42.066 85.033 93.737 0 35.43-17.654 66.069-43.827 82.31-36.291 116.265-136.09 199.66-253.809 199.66-117.76 0-217.518-83.395-254.157-199.66-26.153-16.241-43.5-46.859-43.5-82.31 0.021-51.67 37.95-93.737 85.075-93.737z m212.275-91.156c-85.033 0-153.723 76.022-153.723 169.759s72.93 169.779 153.723 169.779c84.726 0 153.395-76.042 153.395-169.78s-68.69-169.758-153.395-169.758z m0.327 372.736c-101.724 0-184.156-91.156-184.156-203.366 0-112.538 82.412-203.694 184.156-203.694 101.397 0 183.808 91.156 183.808 203.694 0 112.21-82.432 203.366-183.808 203.366z m0 0"  horiz-adv-x="1024" />

    
    <glyph glyph-name="down" unicode="&#58882;" d="M512.07440346 320.79565980999996l-163.44146388 163.43866676c-6.8641387 6.86973294-18.00563717 6.86973294-24.87033531 0-6.87029237-6.8641387-6.87029237-18.00563717 0-24.8703353l175.87635183-175.87635181c6.8641387-6.86973294 18.00563717-6.86973294 24.8703353 0l175.87579238 175.87635181c3.43486648 3.43262877 5.15285913 7.93431777 5.15285915 12.43488795s-1.71799266 9.00225917-5.15285915 12.43488792c-6.8641387 6.86973294-18.00563717 6.86973294-24.87033528 0l-163.44090448-163.43866676z"  horiz-adv-x="1024" />

    
    <glyph glyph-name="shang" unicode="&#58883;" d="M1855.04490313-667.93912746L1080.86207325 73.63802097999996 305.60136967-666.8612537700001z"  horiz-adv-x="2141" />

    
    <glyph glyph-name="jingxuanzhuanti" unicode="&#59353;" d="M814.326 345.57l-9.508 10.212-187.126 26.796-77.881 158.862-5.667 9.505-8.093 4.246c-14.36 6.269-31.051 0.403-38.433-13.348l-80.316-159.566-176.097-25.788-10.926-2.121-6.369-6.372c-5.868-5.763-9.104-13.752-8.903-22.043s3.845-16.078 10.013-21.64L342.569 180.34l-29.937-176.149v-11.224l4.549-8.09c3.643-6.976 10.017-12.234 17.501-14.561 7.587-2.327 15.676-1.517 22.659 2.224l156.07 85.246L671.2-25.031l10.219-4.147 8.495 1.718c7.887 1.418 14.969 5.867 19.521 12.539 4.552 6.676 6.272 14.865 4.754 22.754l-30.345 176.148 127.652 124.577 7.077 8.09v8.493a30.764 30.764 0 0 1-4.247 20.429zM628.619 198.745l27.108-156.738-140.902 73.921-140.9-74.323 25.389 157.037-114.196 112.445 157.489 22.852 70.5 142.986 70.5-142.681 157.489-22.853zM301.303 486.833c17.601 0.201 31.759 14.459 31.66 32.053v246.53c0.099 8.493-3.236 16.785-9.306 22.754-6.07 6.064-14.266 9.402-22.761 9.299-17.394-0.403-31.455-14.561-31.66-32.053v-246.53c0-8.493 3.339-16.682 9.409-22.647 6.07-6.068 14.163-9.406 22.658-9.406z m422.801 0.707a31.784 31.784 0 0 1 22.453 9.303 31.773 31.773 0 0 1 9.306 22.451V765.721c0 8.394-3.339 16.48-9.306 22.45a31.78 31.78 0 0 1-22.453 9.299 31.782 31.782 0 0 1-22.456-9.299 31.78 31.78 0 0 1-9.306-22.45v-246.53a31.762 31.762 0 0 1 9.306-22.446c5.967-5.867 14.06-9.205 22.456-9.205z m-211.4 122.862a31.76 31.76 0 0 1 22.452 9.303 31.762 31.762 0 0 1 9.306 22.446V765.417c0.103 8.493-3.236 16.785-9.306 22.754-6.07 6.064-14.262 9.402-22.757 9.299a31.786 31.786 0 0 1-22.456-9.299 31.775 31.775 0 0 1-9.306-22.45v-123.265c-0.099-8.494 3.24-16.683 9.306-22.75 6.07-6.068 14.265-9.407 22.761-9.304z m0 0"  horiz-adv-x="1024" />

    
    <glyph glyph-name="gouwudai" unicode="&#58939;" d="M920.40192-85.15584l-38.54336 663.1424a34.42688 34.42688 0 0 1-34.63168 32.13312h-113.68448v67.21536C733.5424 797.9008 633.98912 896 511.62112 896 389.2736 896 289.72032 797.92128 289.72032 677.33504v-67.21536H175.9744a34.4064 34.4064 0 0 1-34.57024-32.1536L102.4512-91.91424c-0.55296-9.3184 2.80576-18.51392 9.37984-25.35424 6.53312-6.84032 15.62624-10.71104 25.1904-10.71104h749.91616C906.02496-128 921.58976-112.76288 921.58976-93.88032c0 3.03104-0.4096 5.9392-1.18784 8.72448zM359.00416 677.31456c0 82.96448 68.5056 150.44608 152.61696 150.44608 84.1728 0 152.63744-67.4816 152.63744-150.4256v-67.21536H359.00416v67.21536z m-185.30304-737.0752l35.0208 601.62048h80.9984v-34.11968c0-18.88256 15.48288-34.14016 34.63168-34.14016s34.65216 15.2576 34.65216 34.14016v34.11968h305.2544v-34.11968c0-18.88256 15.50336-34.14016 34.63168-34.14016 19.1488 0 34.65216 15.2576 34.65216 34.14016v34.11968h81.01888l35.00032-601.62048h-675.84z"  horiz-adv-x="1024" />

    
    <glyph glyph-name="fankui" unicode="&#58889;" d="M616.261818 786.152727L109.847273 279.738182v-275.549091l297.890909-22.341818L912.290909 486.4 616.261818 786.152727z m217.832727-297.890909L394.705455 48.872727 178.734545 268.567273l437.527273 437.527272 217.832727-217.832727zM165.701818 201.541818l152.669091-156.392727-152.669091 11.170909v145.221818z"  horiz-adv-x="1024" />

    
    <glyph glyph-name="jiantouxia_small" unicode="&#58931;" d="M509.97433379 485.28330807c16.20532929 0 30.38499233-6.07699861 42.53898959-18.2309955L667.9762945 337.40967837000005c8.10266482-8.10266482 6.07699862-20.25666167-2.02566585-28.35932649-8.10266482-8.10266482-20.25666167-6.07699862-28.3593265 2.0256662l-117.48863733 129.64263454c-2.02566621 2.02566621-6.07699861 4.0513324-10.12833103 4.05133243s-8.10266482-2.02566621-12.15399687-6.07699862l-111.41163907-129.64263455c-8.10266482-8.10266482-20.25666167-10.12833066-28.3593265-2.02566621-8.10266482 8.10266482-10.12833066 20.25666167-2.02566585 28.35932651L467.43534422 465.02664673c10.12833066 14.17966307 24.30799408 20.25666167 42.53898957 20.25666134-2.02566621 0 0 0 0 0z"  horiz-adv-x="1024" />

    
    <glyph glyph-name="meizhuang" unicode="&#59026;" d="M116.623317 497.969406c0.417986 1.117962 0.976967 2.234925 1.255958 3.444884a40.352641 40.352641 0 0 0 33.882858 31.089953c2.839904 0.371987 5.817804 0.511983 8.703707 0.558981h23.085223l0.231992 2.605913V870.634854c0 3.024898 0 6.096795 0.60498 9.029696A20.106323 20.106323 0 0 0 204.12237 895.39302c76.562421-0.696977 141.02325-28.902027 192.68551-85.49712a240.4839 240.4839 0 0 0 58.876017-118.683002c3.25789-16.802434 4.653843-33.743863 4.281856-50.871287-0.325989-17.919396-0.092997-35.790795-0.092997-53.663193v-53.709191h3.397885c7.911734 0 15.917464 0.278991 23.829198-0.046998 15.73147-0.744975 27.693067-7.912733 35.371808-21.829265 3.351887-6.049796 4.514848-12.751571 4.514848-19.639338v-577.032565c0-9.959665-2.326922-19.082357-8.656708-26.855095a39.560668 39.560668 0 0 0-27.227083-15.079492c-2.745908-0.279991-5.445817-0.465984-8.144726-0.465985h-323.32911a42.632564 42.632564 0 0 0-27.694067 9.169691 39.653664 39.653664 0 0 0-14.101525 22.712235c-0.232992 1.116962-0.791973 2.093929-1.209959 3.117895V497.969406z m42.259577-128.875659v-455.648653h326.216012V369.093747H158.836895z m66.834748 164.154471h192.40652V642.018555c0 4.514848 0.139995 9.029696 0 13.497545a183.981803 183.981803 0 0 1-8.051729 47.472401C390.990076 764.657424 351.522405 808.593944 293.157371 835.72803c-18.757368 8.749705-38.630699 14.009528-59.109009 16.894431-2.699909 0.418986-5.491815 0.558981-8.377718 0.837972v-320.211215z m259.381264-41.421605a27118.361609 27118.361609 0 0 1-326.262011-0.185994v-81.310261h326.262011V491.873612z m410.410177-389.606877c0-57.339069-0.092997-114.680137 0-172.020206 0.045998-12.379583-2.9789-23.643204-10.239655-33.55687a56.968081 56.968081 0 0 0-41.888589-24.06219 97.612712 97.612712 0 0 0-9.679674-0.464984H635.895827a57.712056 57.712056 0 0 0-42.586566 17.592408 56.176108 56.176108 0 0 0-16.336449 38.630698V273.680961c0 12.566577 3.118895 24.202185 10.519645 34.44184 10.37865 14.288519 24.34118 22.339248 41.887589 24.155186 3.071897 0.325989 6.23679 0.465984 9.401684 0.465984h197.43235c14.195522 0 26.994091-4.049864 38.118716-12.985562 11.169624-8.982697 18.150389-20.665304 20.617306-34.813828 0.60498-3.583879 0.511983-7.306754 0.511982-10.98363v-171.741215z m-41.515602 0V272.334006c0 1.395953 0 2.745908-0.092997 4.094862a15.638473 15.638473 0 0 1-10.891633 14.24252 28.391044 28.391044 0 0 1-8.051729 0.929969H637.850761c-1.396953 0-2.745908 0-4.095862-0.091997a16.103458 16.103458 0 0 1-14.660506-12.892566c-0.325989-1.861937-0.279991-3.722875-0.279991-5.584811v-344.088411a15.73147 15.73147 0 0 1 10.98463-14.892498c2.605912-0.791973 5.584812-0.930969 8.377718-0.930969 65.437796-0.092997 130.969589-0.046998 196.408385-0.046998 1.48995 0 2.9789 0 4.421851 0.092996a16.010461 16.010461 0 0 1 14.893498 15.079493c0.139995 1.396953 0.092997 2.699909 0.092997 4.095862v169.834279z"  horiz-adv-x="1024" />

    
    <glyph glyph-name="huiyuan" unicode="&#58932;" d="M947.6 579.5l-75.8 148c-17.7 34.6-53.4 56.4-92.3 56.4H247.8c-38.9 0-74.6-21.8-92.3-56.4l-75.8-148C61.4 543.8 65.4 500.6 90 468.8L423.4 38c45.7-59 134.8-59 180.5 0l333.4 430.8c24.6 31.8 28.6 75 10.3 110.7zM704.8 354.1L575.7 179.8c-14.6-19.8-37.1-31.1-61.6-31.1h-0.5c-24.8 0.2-47.3 11.8-61.7 31.8L322.3 360.2c-11.1 15.4-7.6 36.9 7.8 48 15.4 11.1 36.9 7.6 48-7.8l129.6-179.7c1.9-2.7 4.5-3.3 6.3-3.3 1.5 0 4.4 0.5 6.4 3.2l129 174.3c11.3 15.3 32.9 18.5 48.1 7.2 15.4-11.2 18.6-32.7 7.3-48z"  horiz-adv-x="1024" />

    
    <glyph glyph-name="guohui" unicode="&#58888;" d="M795 614c-21 7-42 32-56 46s-26 72-26 72L512 807l-201-75s-12-58-26-72-35-39-56-46l-20-6s0-273 133-405c132-133 170-130 170-130s38-3 170 130c133 132 133 405 133 405l-20 6zM894 290l28 28c28 28 14 120 14 120h-22v42c0 42-34 75-42 75s-34-20-34-20l-9-14c-13-98-46-246-135-335-129-129-174-138-181-139l-1-1-1 1c-7 1-52 10-181 139-89 89-122 237-135 335l-9 13s-26 21-34 21c-7 0-42-33-42-75v-42H88s-14-92 14-120l28-28s-31 9-40 0 6-70 60-124 88-71 88-71-47 1-67-10l-21-12s7-68 115-91c83-17 174-37 217-44l10-1 12-1 14 1c9-5 133 23 241 45 108 23 115 91 115 91l-21 12c-21 11-67 10-67 10s34 17 88 71 69 115 60 124-40 0-40 0zM814 627c-22 6-44 33-59 48s-28 77-28 77L513 832l-215-80s-13-62-28-77-37-41-59-48l-22-7s0-41 7-99c13-98 46-246 135-335 129-129 174-138 181-139h2c7 1 52 10 181 139 89 89 122 237 135 335 7 58 7 99 7 99l-22 7z m-11-144c-14-90-47-207-121-280l-14-14c-4 4-9 7-10 5-2-4-9-2-9-2v15h-4v-3h-2v5h-3v-3h-1v3h-3v-2h-2v4h-4v-5h-2v5h-3v-5h-2v6h-6v-22l-3-3-4 3-1 1-5 1s-16 4-23 0c-7-5-14-2-14-2v32h-6v-5h-4v8h-4v-6h-3v10h-6v-4h-3v7h-6v-7h-7v7h-6v-7h-6v7h-7v-7h-5v7h-5v-8h-8v8h-7v-33s-24-3-26-2c-2 2-7 0-7 0l-13-3-2-10h-4l-12 10c-4 4-8 4-9 4l-1 1v19h-7v6h-3v-4h-3v5h-3v-4h-3v5h-4v-4h-2v5h-6v-5h-6v5h-4v-24s-10 7-15 7c-4 0-7-7-8-11l-4 4a526 526 0 0 0-121 280c-12 72-12 125-12 125l20 7c21 6 42 31 56 45s26 72 26 72l201 75 202-75s11-58 25-72 35-39 56-46l20-6s0-54-12-125zM512 817.5m-7 0a7 7 0 1 1 14 0 7 7 0 1 1-14 0ZM491.1 809.8m-7 0a7 7 0 1 1 14 0 7 7 0 1 1-14 0ZM470.3 802.1m-7 0a7 7 0 1 1 14 0 7 7 0 1 1-14 0ZM449.4 794.4m-7 0a7 7 0 1 1 14 0 7 7 0 1 1-14 0ZM428.5 786.8m-7 0a7 7 0 1 1 14 0 7 7 0 1 1-14 0ZM407.7 779.1m-7 0a7 7 0 1 1 14 0 7 7 0 1 1-14 0ZM386.8 771.4m-7 0a7 7 0 1 1 14 0 7 7 0 1 1-14 0ZM366 763.7m-7 0a7 7 0 1 1 14 0 7 7 0 1 1-14 0ZM345.1 756m-7 0a7 7 0 1 1 14 0 7 7 0 1 1-14 0ZM324.2 748.3m-7 0a7 7 0 1 1 14 0 7 7 0 1 1-14 0ZM304.1 739.4m-7 0a7 7 0 1 1 14 0 7 7 0 1 1-14 0ZM262.5 651.5m-7 0a7 7 0 1 1 14 0 7 7 0 1 1-14 0ZM279.9 671.5m-7 0a7 7 0 1 1 14 0 7 7 0 1 1-14 0ZM220.9 620.6m-7 0a7 7 0 1 1 14 0 7 7 0 1 1-14 0ZM198.2 612.9m-7 0a7 7 0 1 1 14 0 7 7 0 1 1-14 0ZM243.7 634m-7 0a7 7 0 1 1 14 0 7 7 0 1 1-14 0ZM290.9 694.9m-7 0a7 7 0 1 1 14 0 7 7 0 1 1-14 0ZM297.9 717.2m-7 0a7 7 0 1 1 14 0 7 7 0 1 1-14 0ZM532.9 809.8m-7 0a7 7 0 1 1 14 0 7 7 0 1 1-14 0ZM553.7 802.1m-7 0a7 7 0 1 1 14 0 7 7 0 1 1-14 0ZM574.6 794.4m-7 0a7 7 0 1 1 14 0 7 7 0 1 1-14 0ZM595.5 786.8m-7 0a7 7 0 1 1 14 0 7 7 0 1 1-14 0ZM616.3 779.1m-7 0a7 7 0 1 1 14 0 7 7 0 1 1-14 0ZM637.2 771.4m-7 0a7 7 0 1 1 14 0 7 7 0 1 1-14 0ZM658 763.7m-7 0a7 7 0 1 1 14 0 7 7 0 1 1-14 0ZM678.9 756m-7 0a7 7 0 1 1 14 0 7 7 0 1 1-14 0ZM699.8 748.3m-7 0a7 7 0 1 1 14 0 7 7 0 1 1-14 0ZM719.9 739.4m-7 0a7 7 0 1 1 14 0 7 7 0 1 1-14 0ZM761.5 651.5m-7 0a7 7 0 1 1 14 0 7 7 0 1 1-14 0ZM744.1 671.5m-7 0a7 7 0 1 1 14 0 7 7 0 1 1-14 0ZM803.1 620.6m-7 0a7 7 0 1 1 14 0 7 7 0 1 1-14 0ZM825.8 612.9m-7 0a7 7 0 1 1 14 0 7 7 0 1 1-14 0ZM780.3 634m-7 0a7 7 0 1 1 14 0 7 7 0 1 1-14 0ZM733.1 694.9m-7 0a7 7 0 1 1 14 0 7 7 0 1 1-14 0ZM726.1 717.2m-7 0a7 7 0 1 1 14 0 7 7 0 1 1-14 0ZM728 536c0 11-2 22-4 33a204 204 0 0 1-101 136 208 208 0 0 1-95 27h-22l-3-1a220 220 0 0 1-145-67 202 202 0 0 1-58-134v-26l2-15a208 208 0 0 1 57-117l1-1 2-2v-1l-10-52-2-13 6-2c5-1 5-1 5-5 0-2 1-2 2-2l11-2c2-1 3-1 3-4v-5l18-2c2 0 2-1 2-2l1-5h32l1 12 1 2 5 3v-7c0-2 0-2 2-2l9-1 1-2 1-4h18l2 1c1 2 2 3 4 3h2c2 0 4-1 4-3l2-1h19l3 1c0 2 1 2 2 2h11c1 0 2 0 3-2l2-1a540 540 0 0 0 21 1c0 2 2 3 3 2h2c3 1 5 0 6-2l2-1h17l1 6 12 1v9l6-4v-2l1-11h32a843 843 0 0 0 2 7l14 2h5v7l2 2 9 1c5 1 5 1 5 6l2 2 9 2v2l-11 54-2 10a209 209 0 0 1 68 136l1 13v16l-1 2zM546 377c-6 10-20 16-35 16s-28-6-35-16c-64 16-110 74-110 143 0 82 67 147 149 147s149-66 149-147c0-69-52-127-118-143zM398 274l-1 4c0 2 0 3-2 3l-19 2 1 5c0 2-1 3-3 3l-12 2-1 2c-1 5-1 5-5 6l-6 1 2 13 10 53 2 5 14 26 2-1a207 207 0 0 1 101-49c4-1 8 0 12 3l-4 1c1 8 11 15 20 16 10 0 20-6 23-15l-3-1v-1l4-2h10c37 6 69 22 97 46l4 3 5-8 10-20 3-12 10-54v-3l-8-2c-2 0-2-1-2-2-1-5-1-5-5-5l-9-2c-2 0-2-1-2-2v-7h-5l-14-2-2-1v-6h-32l-1 12-1 2-6 3v-9l-12-1-1-6h-17l-1 1c-2 2-4 3-7 3h-1c-2 0-3 0-4-2 0-2-1-2-2-2a540 540 0 0 1-21 2l-2 1h-12l-2-1-2-2h-19l-2 1c-1 2-2 3-4 3h-2l-5-2-2-2h-17l-1 5-2 1-9 1c-1 0-2 0-2 2v7l-5-3-1-2-1-12-31 1z m199 51l-2-4v-45h2l22 1c2 0 3 1 3 3l1 3 1 1 12 2c5 1 5 1 6 6l1 2 10 2c3 0 5 2 6 5l2 2 7 1v2l-13 63c0 2-1 3-3 4v-6a8540 8540 0 0 1 10-58 486 486 0 0 0-11-1l-7 45-2 5c-2-1-3-3-2-5l2-15 4-34 2-1h5v-4l-19-2-4 48c-4-2-4-2-4-6l2-35 1-11h7v-4h-20v4l-1 33-2 6h-1l-2-8 1-32v-8h6v-4h-16l-1 1a5257 5257 0 0 0-3 44z m-237-16l1 2 9 56v6l-3-4-11-57-1-7 4-1c3 0 5-2 6-5 0-2 1-2 2-3l9-2c5-1 5-1 5-5v-1l2-2 12-1c4 0 6-2 6-6l2-2h24v45l-1 3c-2 0-3-1-3-3l-1-34 1-7h-18v4h6v3l1 36-2 9-2-8-1-25-1-11h-20v5h7v1l4 47-1 2-4 2-3-49-20 3 1 4h6l1 2 6 48c0 2 0 3-2 5l-2-5-5-34-2-13-12 2z m205-28h-7l-2 2-1 12v3c1 2 0 4-2 5l2 2h-1l-3-3v-18h-10v4c0 3 0 4-4 4l-1-13h-11l-1 10c-2 1-3 0-3-2l-1-3c-1-1-1-2-3-2h-9c-5 0-5 0-6 5-1 2-2 3-3 2l-2-9h-11l-1 12c-4-1-4-1-4-4v-4h-10v18l-2 3-2-1 2-2-2-1c1-7-1-13-1-20h-9v18l-1 4c-2-2-3-3-2-6v-9l-2-2h-6c-2 0-2 1-2 2l-1 5c-4-2-2-5-2-8h11a338 338 0 0 1 3-8h11l1 1c2 2 4 2 7 2h5l4-1c1-2 2-2 4-2h11c1 0 2 0 3 2l2 2h16c2 0 3-1 4-3l1-1a277 277 0 0 1 15 0c2 3 4 3 7 3h5l4-1 2-2h11l2 2 1 6h11c-1 3 2 6-2 8l-1-5-1-2h-9v11l-2 6c-2-2-1-4-1-7l-1-15zM377 384c-3-3-3-5-1-9 4-8 9-15 16-22 11-10 23-18 36-24s26-9 40-9l13 2h-10c-20 1-36 7-50 21-8 9-15 20-19 31-1 3-3 4-5 5 3-19 14-32 28-44-3 0-6 1-9 4l-12 11c-8 10-13 21-17 33-1 4-1 4-5 4 4-15 11-27 20-39-14 8-19 23-25 36z m165-61v-1h1c11-3 22-2 33 1 18 4 34 13 48 24 10 8 18 18 23 29 2 3 1 5-1 8l-5-10c-4-8-8-15-14-21l-7-5c9 12 16 24 20 39-4 0-4 0-5-3a89 89 0 0 0-29-45c-2-2-5-4-8-3 13 11 24 24 28 43-3-1-4-3-6-5l-8-17a70 70 0 0 0-70-34z m-134 47l1-1c4-8 9-16 15-22 8-9 18-16 30-19s23-1 35 3l7 2v1h-2l-16-3c-15-1-29 3-41 11-11 7-19 17-26 27 0 2-1 2-3 1z m206 0c-1 1-2 1-3-1-4-7-9-13-15-19a63 63 0 0 0-52-19l-15 3c-1 0-2 1-3-1l21-6c16-2 30 1 43 11 7 6 12 12 17 20l7 12z m-146-60l9-7h1c2 2 4 0 6-1l-2-4 12-4 4 1c2 2 3 2 5-1l3-1h9c3 0 5 0 6 2s3 1 4 1c1-1 3-3 4-2l12 4-1 4c2 1 3 3 5 1h2l9 6-2 2v-1h-5l-4-4c-2 1-5 2-6 1-2-1-3-3-2-5l-1-2-6-3c-1 1-2 4-4 4-1 1-3 0-5-1-2 0-4 0-4-2s-1-2-3-2h-5c-2 0-3 0-3 2s-1 2-3 2l-2 1c-3 1-5 0-7-3l-1-1-7 3c1 3 2 5-1 7-2 1-5 0-7-1l-3 3c-1 1-2 3-3 1-1 0-3 3-4 0z m43 51h-3c-5-1-11-5-12-10-2-7 3-15 11-17s16 2 18 10v7c-2 6-7 10-14 10z m27-44l-3 2c-2 1-3 0-5-1-10-6-21-8-32-4l-12 7-4-3c14-14 39-16 56-1z m-107-21c1-2 3-2 5-1l29 17 2 2-2 1-5 2-3 1h-3l-17-11-7-5c1-3 2-3 4-1l21 13c2 1 3 1 5-1l-29-17z m161 0l-29 17c1 2 3 2 4 1l21-14c3-1 4-1 4 2l-24 16h-1l-5-1c-2 0-5-1-6-3l3-2 28-17c2-2 3-1 5 1z m-63 42c14-4 29-4 42 2 11 5 19 12 26 21-3-1-6-1-8-4l-8-7a59 59 0 0 0-48-11l-4-1z m-35 0l-6 1c-12-2-24-1-36 5-7 3-14 8-20 14-1 2-4 2-6 3 17-24 42-29 68-23z m-1-13c7-7 24-8 32-2l-7 4h-1c-6-2-12-2-17 1h-2l-5-3z m71 24h-1c-10-2-20-5-32-4 0-1 0-2 2-2h11c6 0 11 1 16 3l4 3z m-105 0c1-2 3-3 7-5 8-2 16-2 24-1 2 0 1 1 1 2-11-1-21 2-32 4z m114-31l18-12c1 2 1 3-1 4l-13 9c-2 1-3 1-4-1z m-142-12l19 12c-2 2-3 2-4 1l-14-9c-1-1-2-2-1-4z m162 10l-9 5-2-1 1-2 6-5 4 3z m-160-3l6 5 1 2-2 1-8-5 3-3zM528 731h9a210 210 0 0 0 141-71 201 201 0 0 0 50-124v-18l-1-13a210 210 0 0 0-61-130l-1-2-2 5 1 2a205 205 0 0 1 21 264 202 202 0 0 1-161 82 209 209 0 0 1-219-214c2-52 21-97 56-135v-3l-1-3-9 10a210 210 0 0 0-51 122v26a212 212 0 0 0 203 201l3 1h22zM561 367l-5 9-5-3-4 5-1 2 3 4-7 6-3-4-7 3 3 5-9 4-2-4-1-1-8 1v6h-9v-4c0-2 0-2-2-2l-5-1c-1-1-2 0-2 1l-2 5-9-5 3-5-6-4-4 5-7-6 3-5-1-1-4-5-5 2-5-8 6-3-2-6 7-1c3 7 7 14 12 19 6 6 14 9 25 10 12 1 23-3 30-10 5-5 9-11 12-18l8 2-2 4 5 3zM531 375a35 35 0 0 1-41 0c-7-5-13-12-13-19l6-2c4 11 11 17 21 20h13c10-3 17-9 21-19l6 2c-1 6-6 13-13 18zM310 489v1l-1 7 6 5 43 39 1 1-1-9-2-1-44-42-2-1z m407 2l-8 7a12075 12075 0 0 0-38 37l-2 9 1-1 47-42c1-1 2-2 1-4l-1-6z m-403-15l-2 7 1 2 40 37 4 3v-7l-1-2-37-35-5-5z m399 2l-15 15-25 23c-2 2-3 3-2 6v5l2-1 40-39c2-1 2-2 1-3l-1-6z m-357-88l-4 6-1 1 22 48 5-6v-2l-22-46v-1z m25 47l1-1 4-6-3-6-18-41-1-1-4 5v2l21 47v1z m272 11l11-27a894 894 0 0 1 9-24l-4-4-1 2-20 44 1 3 4 6z m8-64l-3 7-18 40 1 3 3 5 3-6 18-41-1-3-3-5zM319 579c2-1 3-2 2-5-6-21-9-42-8-64 0-2-1-3-3-4-1 25 2 50 9 73z m391 2c7-24 10-48 7-73-1 1-2 2-2 5 1 21-1 43-7 64l2 4z m-338 18c-3 4-3 4-7 2h-1c-2-1-3 0-2 2l3 5 6 5 3 1 2-1c1-2 1-5-1-7v-4l6 1c2 0 2 0 2-2l-1-5c-1-2-3-2-5-1h-1l-2-1c-1 0-3-1-4 1-1 1 0 3 1 4h1z m287 2l1-4c0-2-1-3-3-2l-2 1h-2c-2-1-4-1-4 1l-2 6 2 1 7-1-1 4v7l2 1 4-3 3-2 4-5v-3h-3c-3 2-5 1-6-1z m-333-29c1-1 2-2 1-4-4-15-6-31-6-46v-6l-3-3c-1 20 2 40 8 59z m378 2c5-20 7-39 6-59-2 0-3 1-3 4 0 17-1 34-5 51-1 2 1 2 2 4z m-379-56c0 20 3 39 9 57h3l-3-9c-4-14-6-29-6-44 0-2-1-2-3-4z m368 58l2 1c6-19 8-38 8-57-2 1-3 2-3 4 0 17-2 34-7 50v2z m-360-51c1 17 4 33 9 48h2l-3-14c-3-10-4-20-5-30 0-3 0-3-3-4z m352 49l3 1c4-16 7-32 7-48-2 0-3 1-3 4 0 14-2 27-6 41l-1 2z m-344 52l4-9c2-3 2-6 0-8l-3-3h-2v4l-2 2c-2 1-1 3-1 4 1 4 1 7 4 10z m-11-187l6-12 10-19c2-2 1-3 0-5-8 11-14 23-19 35l3 1z m366 2l3-1c-5-12-12-23-20-34-2 2-2 3 0 5a192 192 0 0 1 17 30z m-6 186c3-4 3-8 4-12l-1-1c-2-1-2-2-2-4l-1-2-1-2-2 1-2 5-1 4 6 11zM440 364l-5 2-1 1-5 24c4-1 5-2 6-5l5-22z m145 3l2 11 3 11 3 4 3 1-3-14-3-9c0-2-1-3-3-3l-2-1z m-77 355c0-2-1-3-3-3-11 0-21-2-32-4h-2c0 2 1 3 3 4a207 207 0 0 0 34 3z m17 1l16-2 18-2c2-1 3-2 3-4l-9 1-25 3c-2 0-2 0-3 4z m-86-32c4 0 8-1 12-4 2-2 2-3-1-3-4-2-9-1-13 1l-2 1-1 4 3 1h2z m148-8l-5 1c-2 1-3 2-1 4l9 3 7 1c1 0 2-1 1-3 0-2-1-3-3-4l-8-2z m19 19c3 0 8-3 8-6l1-9c0-1-1-2-2-1-3 1-5 2-6 6l-1 10z m-179 0c1-5-1-9-3-13l-5-4-2 1c-1 4 0 8 2 11 1 3 4 4 8 5z m100 12l27-3 9-1 1-3h-2c-11 2-22 4-33 4-2 0-2 0-2 3z m-21 0v-2l-27-4-8-2-2 1 1 2 10 2 24 3h2z m180-215c2-7-3-17-10-18-2 7 3 16 10 18zM406 650l-1-4-4-7-5-5-2-1-1 3 2 8c2 4 7 4 10 6h1z m-64-152c6-2 11-11 9-18-6-1-12 11-9 18z m44 134c3-4 3-8 1-11-1-3-4-5-7-6l-1 1c-2 3-1 7 1 9l3 3 3 4z m66 46c0-4-1-7-5-9l-7-1c-2 0-3 1-3 3 0 3 2 4 4 5l9 2h2z m136 30v1l1 1h1c3-3 7-5 9-9l1-3-1-2-3-1c-7 2-8 7-8 13z m38-57l2-1c6-1 10-6 10-13l-1-3-3 1-7 10-1 6z m-181 60l-2-11c-1-4-4-5-7-5-2-1-4 2-3 4l6 8 4 3 2 1z m200-79l7-7c2-3 1-6 0-8l-3-1c-4 2-7 5-6 10l1 6h1z m-55 36l-7 2c-2 2-3 4-3 7l1 1 10-2c3-1 4-4 4-6-1-2-3-2-5-2z m-256-59l2-5 1-6c1-3-1-4-2-6h-2c-5 4-6 11-2 15l2 2h1z m363 1c6-4 5-13 0-17h-2c-1 1-3 3-2 5 0 4 2 7 3 11l1 1zM335 458c0 5 2 10 3 14 1 2 2 1 2 0l2-6c1-5-2-9-4-13l-1-1-2 2v4z m357 2l-1-4-2-1h-1c-3 5-5 10-3 16l1 4c1 0 2 1 2-1l4-13v-1zM360 608v-1c-1-6-9-10-14-9-2 1-2 2-1 3l6 7h9z m-24-118l1-4-2-10-2-2c-3-1-4 0-4 2v8c1 4 4 5 7 6z m0 92c-1 7 8 13 17 12-2-6-11-12-17-12z m358 1c-8 1-14 5-17 12 4 0 7 0 11-2 3-2 6-5 6-10z m-24 26h5c5 1 8-3 11-7l-1-2c-4-1-7-1-10 1l-4 4-1 4z m21-117c6-2 7-5 7-13 0-1 0-3-2-3-1-1-3 0-4 1-2 4-3 9-1 14v1zM461 715c0-3 0-6-3-9-2-3-5-3-7-3s-3 1-3 3c2 5 6 7 10 9h3z m111 0c4 1 7-1 9-3s3-5 3-7c1-2-1-2-2-2-6 0-9 3-10 9v3zM398 403l-2 5 1 8c0 1 1 2 2 1 4-2 6-5 8-9v-2h-3c-1 1-3 1-4-1l-1-2h-1z m12 264l-7 1-2 3 2 3c5 2 9 0 13-2 2-1 1-3 0-4l-6-1z m217-262l-3 3c0 2-1 2-2 1l-2-1h-2v2c2 4 4 7 8 9 1 1 2 1 3-1l-1-10-1-3z m-6 262l-5 2c-2 0-2 3 0 3 4 2 8 4 12 3 2 0 3-2 3-4s-1-2-3-3l-7-1zM347 559c4-4 4-9 2-14l-3-2c-2-1-3-1-4 1l-1 5 3 5 3 5z m-12-119l2 1 8-16 6-9c1-2 1-2-1-5-6 9-11 19-15 29z m354 4l2-2c-4-10-10-19-16-28v5l13 23 1 2zM358 625c0 3 1 5 4 6l11 2h1c0-7-7-10-16-8z m-3-68v4l3 7 5 6c1 1 2 0 2-1v-4l-1-6c0-4-1-4-5-2a870 870 0 0 0-4-4z m302 76h2l10-2c3 0 4-2 4-5-9-3-15 0-16 7z m26-73l2-7 2-2v-6l-3-1c-1 0-3 0-4 2-2 4-2 10 2 13l1 1z m-9-2l-3 3-2 1c-2-2-4-1-4 1l-1 10 1 3 2-2c5-3 5-8 7-13v-3z m8 81l1-6v-2c2-1 2-2 1-4l-4-5-3 1c-2 5 1 14 5 16zM355 453a48 48 0 0 0 8-5c2-1 2-2 2-5l-2-3c-1-2-3-3-4 0l-5 10v3h1z m-25 10h-9c-3 3-6 5-7 8 7 2 15-1 16-8z m342-8v-4l-5-9c-1-2-3-2-4 0-2 4-3 7 2 9l4 3 3 2v-1zM504 707c1-2 0-3-2-3l-27-4c-2 0-3 0-3 2 10 3 21 4 32 5z m-155-68l2-2c3-4 4-8 3-12 0-3-3-5-4-3l-3 3c0 2-1 4 1 5l1 5v4z m348-174c0 7 8 10 17 8l-3-4a74 74 0 0 0-5-4h-9z m-341 26c-5 5-6 13-3 17 1 2 3 2 3 0 2-3 3-7 2-11l-2-6z m279 131l-6 3-4 7v1h5c4 0 7-2 8-6 0-2-1-4-3-5z m-234 10l4 1c2 0 2-1 1-2-2-4-4-8-10-9-2 0-3 1-3 3 0 4 3 7 8 7z m-36-36l2-3-1-2-2-5c-1-2-5-4-7-3-1 1-2 2-1 3 0 4 5 9 9 10z m163 111c11-1 22-2 33-5 0-2-1-2-3-2l-27 4c-2 0-3 1-3 3zM371 456v-1c0-2 0-4-2-4-2-1-5 2-6 4 0 2 0 5 2 7v2l1 2 3-1 3-9h-1z m70-72c3-1 5-3 5-6l4-17c-3 0-4 1-5 4l-4 17v2z m224 213c5-2 8-5 9-9 1-2 0-4-2-4-4 0-6 1-6 4l-1 2-2 3 2 4z m7-104l-3 9 2 7 2 2 2-2c2-6 1-12-3-16z m-17-34l3 8 2 1 2-2 1-3c2-4 0-9-5-10l-2 1-1 5z m-71-73l-6-20-4-3v2l5 18c0 3 3 2 4 3h1z m59 24c0-5-3-8-7-10l-5 1v2l3 4 6 5 2 1 1-3z m-253-13l-2 2c-4 2-6 5-6 10 1 1 2 2 3 1l8-7 1-4-4-2z m-44 168l1 4 6 6c1 2 2 1 3 0 1-2 0-7-1-8l-2-4-1-1-1 1c-1 2-2 2-5 2z m337 1c-2 1-4 0-4-2l-2-1-1 2-2 3v8l2 1 6-7 1-4zM394 616c0-3-1-4-3-6l-8-4c-2 0-3 1-2 3 1 5 8 8 13 7z m246 1c3-1 7-2 9-6v-3l-3-1c-3 1-7 3-9 7-1 2-1 3 3 3z m-29-219l2 4 6 3c3 1 4 0 3-3l-3-8h-2c-2 2-3 4-6 4z m-197-3c-3 0-4-2-6-4h-2l-3 9c-1 2 1 3 3 2l6-4 2-2v-1z m-46 225l-1-1-2-2c-4-6-9-4-14-5l2 5 3 1c2 2 4 2 6 2h2l4 1v-1z m311-7l-9 1h-1l-7 7v1l3-1h5l3-1 4-2c2-1 2-2 2-5zM343 445a2032 2032 0 0 1 12-21c1-2 1-4-1-6l-13 25 2 2z m14 192l2 7 3 8 1 1 2-1c2-5-1-9-3-14l-4-2-1 1z m46 44c1 4 2 8 5 11 2 2 3 1 4-2s-2-9-6-11c-2-1-3 0-3 2z m226 0c0-2-1-2-2-2l-1 1c-4 1-7 8-5 12 0 2 1 2 2 1l4-5 2-7z m54-234l2-1-14-25v5l11 19 1 2z m-36 193c4 3 8 4 13 3l4-4c0-2 0-3-2-3l-7 1-8 3z m27 0l-2-3-4 2-2 9c-1 2 0 3 1 5h2l5-13z m-242 37l-2-1-10-1-3 2-1 2 3 2 10-1 4-2-1-1z m-48-38c-5-1-9-5-15-3-2 0-3 1-2 2l4 4c4 1 9 0 13-3z m78 52c-3 0-5 1-7 3-2 1-2 3-1 5h2a72 72 0 0 0 11-5l1-1-1-1-5-1zM362 486c2-3 2-10-2-15l-4 5v2c0 3 3 6 6 8z m238 191c1 3 4 4 6 4l6 1c2 0 4-1 4-3l-3-3c-4-1-8-1-13 1z m-36 16l1 1 11 6 3-1c0-2 1-4-1-5-4-3-9-2-14-1z m103-220c-4 4-4 12-1 15 7-5 7-10 1-15zM475 695l27 4c1-2 0-3-2-3l-21-3c-2 0-3 0-4 2zM356 461l-8 4c-2 3-1 6-2 9 7-1 10-7 10-13z m288 214l2 3 18-16-2-2-18 15z m-87 21c0-3-2-3-3-3l-22 3c-2 1-2 0-2 4l27-4z m113-233c-1 6 5 13 11 13-1-3 0-6-3-9l-8-4zM386 678l2-3-18-16-2 2 18 17z m-62-85c2 0 4-2 4-4l2-8c0-2-1-3-3-2-2 2-4 3-4 5l1 9z m382 1v-10l-5-4-1 1c-2 4 2 12 5 13h1z m-245 69l-3 1-3 1c-2 0-3 0-3 2-1 2 1 2 2 2 4 2 7 1 11-1 1-1 1-4-1-4l-3-1z m109 0l-3 1c-1 1-2 3 0 4 3 2 7 3 11 1l2-2-2-2-8-2z m-183-20l-2 2 18 16h3l-19-18z m-13-58l-1-6c0-2-4-3-6-1l-2 2v2l2 2c1 2 3 3 5 3 2 1 3 0 2-2z m282-3v2l-1 3c0 1 1 2 2 1 3-1 6-2 7-5v-2l-2-2-3-1c-1 1-4 1-3 4zM488 682c-1 3-3 3-6 3h-2v2c2 1 5 4 8 4h1l4-1-2-4-3-4z m159-36l-3-2-18 17h4l17-15z m-173 27l-3 1c-2 1-1 2-1 3l3 4c2 2 4 2 6-1l1-2c1-1 1-2-1-3l-3-2h-2z m70 9l-4 6c-2 1-1 2 1 3l8-1 3-2 1-2h-1l-4-1c-2 0-4-1-4-3z m13-8l-5 2-1 1 4 5c1 1 3 1 4-1l3-3c1-2 0-3-2-4h-3z m-182-21l-2 2 17 15 2-2-17-15z m23 11l-17-16-2 2 9 8 6 5c1 2 3 2 4 1z m19-22l-2-4-4-5c-1-1-2 0-2 1 0 2-1 3-3 3l-1 1 1 1 9 3h2z m2 5l2 2c3 3 6 3 10 2l1-2-4-4-3-1-3 1-1 1-2 1z m221 21l2 3 16-15-2-2-16 14z m-24-25l9-3 1-2h-1c-2 0-3-1-3-3s-1-2-2-1l-6 7c0 2 1 2 2 2z m-13 9l7-2c2-1 2-3 0-4-1-2-3-2-4-1-3 1-6 2-6 5l1 2h2z m47-3l-16 15c1 1 2 2 4 0l13-12 1-1-2-2z m-182 34l-6-7c-2-2-3-1-3 1l-2 3c-1 2 0 4 2 4h9v-1z m-81-259c5-2 5-6 6-10 1-2-1-3-3-2-4 1-5 3-4 7l1 5z m252 2l1-6c0-3-3-6-6-6l-2 3c0 3 3 8 7 9z m-75 259h3l6-1c2 0 3-2 2-3l-2-5h-2l-6 6-1 3zM419 381l-2 2-3 5v3h3l6-5c2-2 1-3-1-4l-3-1z m257 70l3-2-12-20c-1 2-2 3 0 5l8 15 1 2z m-328-4l2 2 1-3 8-15c1-1 1-3-1-5l-10 21z m257-63l-4 1v2c0 3 6 7 8 7l2-2-4-7-2-1zM445 662l2-1c3-1 3-3 1-4-3-1-5-3-9-2l-2 2c-1 1 1 2 2 3l6 2z m145-7l-7 3c-1 1-1 3 1 3l5 1 4-2 2-2-2-2-3-1zM401 395c1-3 4-5 5-9-2-1-4-1-5 1l-5 4-1 3 3 1h3z m20 266l-1 1v3l10 5c1 1 2 1 3-1l-1-2c-3-1-6-2-8-5l-3-1z m198-14l-6 3-1 4v1h8l3-2-2-2c-2-1-2-1-2-4z m-14-267c-2-3-4-5-8-5-1-1-2 0-2 2l1 3c0 2 2 3 5 2l4-2z m14 9c0 4 4 6 5 9h4l2-1-1-3-5-4c-1-2-3-2-5-1zM412 647c1 2 0 3-1 4l-2 2 2 1h9c0-3 0-4-3-5l-3-2h-2z m7-270l5 2c2 1 4 0 5-3v-4c-2-1-4 0-6 1l-2 2-2 2z m287 82l-4-8c-1-2-3-1-4 0-2 0-2 1-3 3l1 1 5 2 5 2z m-95 202l-3 2c-2 3-5 4-7 4-2 1-2 2-2 3l3 1 10-6v-2l-1-2zM320 457l9-3 3-2-3-3c-2-2-4-2-5 1l-4 7z m96-56l4-2 3-6-1-2h-2l-4 5-1 4 1 1z m194 2c0-2 0-4-2-5l-3-4-2-1-1 2c-1 2 3 8 6 8h2zM426 656l2 3 2 2c0 2 4 3 5 2l1-2-3-4c-2-1-4-2-7-1z m179 1c-2-1-4-1-6 1l-3 4 1 2c2 1 4 0 5-2l2-3 1-2z m-122 13l-2 1 1 2 2 3h3c1-1 2-2 1-3l-5-3z m66 1l-4 2c-1 0-2 1 0 3h3l2-2 1-2-2-1zM339 537c2-1 4 0 3-3l-1-1c-2 1-2 2-2 4z m351 2c-1-2 0-4-2-4l-2 1c0 2 2 2 4 3zM572 381c-1-3-4-3-5-4-1 2 0 2 5 4z m-114-7c-2 1-5 1-5 4 2-1 4-1 5-4z m-5-1c1-2 4-1 5-4-3 0-5 2-5 4z m4-15c-2 1-4 1-4 4 1-1 4-1 4-4z m110 8c0 3 3 3 5 4 0-2-1-2-5-4z m5 9c-1-3-3-2-5-3 0 2 3 2 5 3z m-115-11c-2 1-4 0-4 3 1-1 4-1 4-3z m110-3c0 3 3 3 5 4-1-3-3-3-5-4z m-47-15c0-5-4-9-9-9-6 0-10 4-10 9s4 10 10 10c5 0 9-4 9-10zM441 439c2 0 4 0 5 2 2 3 4 5 3 8 0 3 0 5-3 6s-4 3-4 6h5c3 0 3 0 4 3l-4 7h3c1-1 3 0 3 2l3 12 1 3 3-2v-1c1-2 2-3 4-2h93c2 0 4 0 5 2l1 2h2l1-1 2-11c1-4 1-5 6-4l1-1-4-5-1-2c1-1 1-2 3-2h7c0-4-3-6-6-7l-2-2c0-4 0-8 4-11v-1l4-1h37l4-2 4-9v-1l1 2a146 146 0 0 1 21 157 141 141 0 0 1-118 79h-17a143 143 0 0 1-110-51c-24-29-36-62-35-100 1-30 11-58 29-83l2-2 3 8c1 2 2 2 3 2h37z m158-35H422c7-5 13-10 20-13l17-9 15-4 1 1-4 5 8 6 3-5 7 4-3 5 8 4 3-4c0-1 1-2 2-1l5 1 2 1v4h9v-5l7-1 2 1 2 4 9-4-3-5 6-4 4 5 7-6-3-5 1-1 15 4-1 2c13 5 26 11 38 20zM487 575l2 7 6 21c1 1 1 2-1 3l-21 16-1 2h28c2 0 2 0 3 2l9 26v1l3-7 7-20c0-2 1-2 2-2h29v-1l-2-1-21-16c-1-1-2-2-1-4l8-24 1-3-6 4-18 13h-4a2881 2881 0 0 0-23-17z m-54 29a527 527 0 0 0 10-14l14 2-4-4-6-7c-1 0-2-1-1-3l6-13-6 3-6 4c-2 1-3 0-4-1l-9-8-1-1 2 13c0 2 0 3-2 4l-12 6 14 3c2 0 2 0 3 2l2 14z m141-41l6 13-1 3-8 9-2 1 15-2 2 2 7 13 1-4 1-10 3-3 11-1 3-1-12-6c-2-1-2-2-2-4l2-14-7 7-3 3-3 1-13-7z m-72-32l-12-1c-4 0-4 0-5-4l-3-12-5 11v1c-1 2-2 3-5 3h-12l3 2 7 6 1 3-5 12v2l12-8c1-1 2-1 3 1l11 8v-3l-3-11 1-2 10-7 2-1z m38 25l7-10c2-3 2-3 6-2l12 3-7-9c-3-4-3-4 0-8l6-10a518 518 0 0 0-17 4l-9-11v7l1 7c0 2-1 2-2 3l-14 5a1001 1001 0 0 0 16 7l1 14zM563 381l-2 3c13 5 26 12 38 20H422l20-13 21-10-1-3-2 1a150 150 0 0 0 24 287 148 148 0 0 0 178-117c8-49-6-92-39-129a150 150 0 0 0-60-39z m62 47l1 1a146 146 0 0 1 20 157 141 141 0 0 1-117 79h-17l-27-2c-33-7-61-23-83-49-24-28-36-62-35-99 1-31 11-59 29-84l2-1 3 8 3 1h37c2 0 4 1 5 3 2 2 3 4 3 7s0 5-3 7c-3 1-4 3-4 6l5-1c3 0 3 0 4 3l-4 7v1l3-1c1 0 3 0 3 2l3 12 1 3 2-2 1-1c1-2 2-2 4-2h93c2 0 4 0 4 3l2 1 2 1 1-2 2-10c1-5 1-6 6-5h1l-4-5-1-2c1-1 1-3 3-3h7c-1-3-3-5-6-7l-2-1c0-4 0-8 4-11v-1c1-2 2-2 4-2h37c2 0 3 0 3-2l5-9z m-208-16c2-2 3-3 5-3h178c2 0 3 1 4 3H417z m150 51c-1 2-1 3-3 3H458c-2 0-3-1-3-3h112z m-49-47c0 4 2 9-3 12-4 2-8 2-11-1-4-3-3-7-3-11h17z m5 36h-24v-6l24-1v7z m-38-36c0 4 1 8-4 10-2 2-5 1-8-1-2-1-3-6-2-9h14z m66 0c0 4 1 8-3 10-3 2-6 1-9 0-3-3-2-7-2-10h14z m16 15l-3 4c0 1-1 3-2 2l-3-2c0-1 0-3-2-3l-1-2c3 0 3-2 3-4v-6c0-4 0-4 4-4l1 11 2 4h1z m11-15c1 3 1 6-2 8l-6-1c-3-1-3-4-2-7h10z m-115 21h-2c-2 1-2 0-2-1l-1-2v-3l1-7v-6l1-2 1 3v3c0 3 0 7 2 9l1 2-1 4z m-9-21c0 3 0 6-3 7h-6c-2-2-2-5-2-7h11z m115 36h-9v-6h9v6z m-116-7h9v7h-4c-6 0-6 0-6-6l1-1z m102 7h-6l-1-1v-5h6l1 6z m-78 0v-6h6v6h-6z m11-6h6v6h-6v-6z m50 0h6v6h-6v-6z m-11 6v-6h6v6h-6z m-54 0h-6v-6h6v6zM544 452h-6v-6l6-1v7z m-21 0h-24v-6l24-1v7z m10-6v6h-6v-6h6z m30 20H458c-2 0-3-1-3-3h111c0 2 0 3-3 3z m-48-38c-4 2-8 2-11-1-4-3-3-7-3-11h17c0 4 2 9-3 12z m32-2c-2 2-5 1-8 0-3-3-2-7-2-10h13c1 4 1 8-3 10z m-125-17h178c2 0 3 1 4 3H417c2-2 3-3 5-3z m137 11c0-4 0-4 3-4h1l1 11 2 4h1l-3 4c-1 1-1 3-2 2l-3-2c0-1 0-3-2-3l-1-2c3 0 3-2 3-4v-6z m0 26h10v6h-10v-6z m9-30h10c0 3 0 6-3 8l-5-1c-3-2-3-4-2-7z m-13 36h-6l-1-1v-5h6l1 6z m-61-6v6h-6v-6h6z m-42 0l1-1h9v7h-5c-5 0-5 0-5-6z m-7-23c-2-2-2-4-2-7h11c0 3 0 6-3 7h-6z m19 10l-2 4h-1c-2 1-2 0-3-1v-2l-1-3 1-7 1-6 1-2 1 3v3c0 3 0 7 2 9l1 2z m9 19h-6v-6h6v6z m12-36c0 4 1 8-4 10-2 2-5 1-8-1-2-1-3-6-2-9h14z m-2 36h-6v-6h6v6z"  horiz-adv-x="1024" />

    
    <glyph glyph-name="lingxing-" unicode="&#58933;" d="M512-125.72444444999996l509.72444445 509.72444445L512 893.72444445 2.27555555 384l509.72444445-509.72444445z m364.08888889 509.72444445L512 19.91111110999998 147.91111111 384l364.08888889 364.08888889 364.08888889-364.08888889z"  horiz-adv-x="1024" />

    
    <glyph glyph-name="sousuo" unicode="&#58904;" d="M1008.170667-36.778667L781.098667 190.592a52.586667 52.586667 0 0 1-16.512 11.306667c140.693333 178.005333 118.186667 434.858667-51.328 585.685333s-427.242667 143.317333-587.669334-17.130667c-160.448-160.426667-167.957333-418.154667-17.130666-587.669333 150.826667-169.514667 407.68-192.021333 585.685333-51.328 2.688-6.186667 6.506667-11.797333 11.242667-16.576l226.986666-227.370667a53.589333 53.589333 0 0 1 75.797334 75.733334z m-579.84 182.954667c-177.429333-0.042667-321.301333 143.786667-321.344 321.237333-0.042667 177.429333 143.786667 321.322667 321.216 321.344 177.450667 0.042667 321.322667-143.786667 321.365333-321.216 0.042667-177.429333-143.786667-321.322667-321.216-321.365333z"  horiz-adv-x="1024" />

    
    <glyph glyph-name="tuihuanhuopipei" unicode="&#58962;" d="M510.4 830.3C264.3 830.3 64 630 64 383.9s200.3-446.4 446.4-446.4 446.4 200.3 446.4 446.4S756.5 830.3 510.4 830.3z m241.7-540L604 142.2c-10.9-10.9-26.1-10.9-37-2.2-8.7 8.7-8.7 26.1 2.2 37l104.5 104.5H288.3c-13.1 0-24 10.9-24 24s10.9 24 24 24h446.4c13.1 0 24-10.9 24-24 2.1-4.3-2.2-10.8-6.6-15.2z m-17.4 141.5H288.3c-13.1 0-24 10.9-24 24 0 8.7 4.4 15.2 10.9 19.6l143.7 145.9c10.9 10.9 26.1 10.9 37 2.2 8.7-8.7 8.7-26.1-2.2-37L347.1 481.9h387.6c13.1 0 24-10.9 24-24 2.1-13-11-26.1-24-26.1z"  horiz-adv-x="1024" />

    
    <glyph glyph-name="xinaixin" unicode="&#58891;" d="M1066.667 793.6C930.133 921.6 725.333 930.133 588.8 802.133 443.733 930.133 238.933 921.6 102.4 793.6c-136.533-136.533-136.533-349.867 0-486.4l401.067-401.067c42.666-42.666 110.933-42.666 153.6 0L1058.133 307.2c145.067 128 145.067 349.867 8.534 486.4z m-51.2-435.2L614.4-42.667c-17.067-17.066-34.133-17.066-51.2 0L153.6 358.4c-110.933 102.4-110.933 281.6 0 384 102.4 102.4 273.067 102.4 384 8.533l51.2-42.666 51.2 42.666c110.933 102.4 273.067 93.867 384-8.533 93.867-110.933 93.867-281.6-8.533-384z"  horiz-adv-x="1169" />

    
    <glyph glyph-name="baozhang" unicode="&#58893;" d="M516.396 816.248c-236.113-0.607-427.712-193.212-427.093-429.326 0.607-236.101 193.213-427.714 429.326-427.095 236.113 0.596 427.7 193.213 427.107 429.326-0.619 236.116-193.213 427.715-429.34 427.095z m2.092-800.818c-205.448-0.542-373.027 166.161-373.558 371.634-0.542 205.447 166.175 373.027 371.623 373.555 205.461 0.542 373.038-166.158 373.557-371.605 0.539-205.461-166.161-373.041-371.622-373.584zM382.568 608.491c-9.694 0-22.341-4.312-27.516-25.144-9.591-59.99-32.062-111.023-67.103-152.156-6.995-11.19-6.313-22.471 2.348-33.956 10.054-10.042 21.35-9.242 30.988 1.806a99.162 99.162 0 0 1 11.786 14.273l0.012-220.366c1.755-17.63 12.739-22.509 21.645-23.518l0.401-0.051 0.398 0.051c14.237 1.422 21.748 9.682 21.748 23.878v297.23c13.257 30.342 21.863 59.356 25.53 86.137 3.473 22.651-8.711 29.763-20.237 31.816zM740.7 244.315c-68.817 32.085-118.534 68.999-147.909 109.761h131.672c11.9 0 18.459 7.175 18.408 20.728-1.475 11.576-8.674 17.939-20.238 17.939H578.362v41.765h91.249c26.406 0 40.372 13.322 40.372 38.54V558.98c0 26.406-13.966 40.357-40.372 40.357H450.43c-26.392 1.227-40.591-12.686-40.591-40.357l0.026-84.293c1.278-24.976 13.887-38.864 36.693-40.18h89.432v-41.765H404.522l-1.047-0.142c-6.968-1.988-15.656-7.667-17.358-23.143-0.696-4.31 0.079-7.847 2.36-10.531 2.764-3.252 7.435-4.851 14.199-4.851h122.458c-26.059-35.212-72.122-70.911-137.365-106.403-6.208-4.131-12.146-12.443-4.582-29.221 8.467-11.255 18.948-13.887 28.498-8.417 56.917 27.879 98.66 59.837 124.305 95.176l0.023-117.785c1.396-12.804 9.23-19.854 22.072-19.854h0.219l0.195 0.028c12.982 1.446 19.862 9.087 19.862 22.067V307.094c33.892-39.544 81.181-74.6 140.708-104.387 3.534-1.758 6.968-2.635 10.222-2.635 7.384 0 13.68 4.493 18.688 13.474 9.398 18.897-0.464 27.364-7.279 30.769zM470.333 476.841c-12.547 0-18.123 5.602-18.123 18.148l-0.012 47.871c-0.502 5.302 0.295 9.125 2.322 11.343 1.758 1.95 4.779 2.93 8.971 2.93 0.891 0 1.847-0.039 3.174-0.142l183.147 0.012a26.688 26.688 0 0 0 2.478 0.105c7.151 0 15.306-2.286 15.306-20.083v-43.883c0-11.254-5.007-16.302-16.261-16.302H470.333z"  horiz-adv-x="1024" />

    


  </font>
</defs>
</svg>
